<?xml version="1.0" encoding="UTF-8" standalone="no"?><!-- Generator: Gravit.io --><svg xmlns="http://www.w3.org/2000/svg" xmlns:xlink="http://www.w3.org/1999/xlink" style="isolation:isolate" viewBox="0 0 3500 1800" width="3500pt" height="1800pt"><defs><clipPath id="_clipPath_Swz2Ioziu7EF8ILdg9XHpKTDRE32TqBJ"><rect width="3500" height="1800"/></clipPath></defs><g clip-path="url(#_clipPath_Swz2Ioziu7EF8ILdg9XHpKTDRE32TqBJ)"><g><g><path d=" M 752.746 1008.031 L 742.928 960.616 L 729.985 972.888 L 719.018 961.883 L 708.642 1001.295 L 712.005 962.248 L 694.726 963.162 L 706.299 1010.185 L 705.709 1012.418 L 689.45 963.436 L 675.774 971.765 L 667.422 964.598 L 654.798 1007.313 L 656.838 965.146 L 645.027 965.773 L 654.112 1009.689 L 652.104 1016.439 L 641.409 965.956 L 636.595 1014.663 L 635.989 1012.418 L 635.894 966.256 L 628.785 966.622 L 635.798 1011.687 L 623.7 966.896 L 634.427 1103.553 L 770.965 1096.36 L 760.238 959.702 L 752.746 1008.031 Z " fill="rgb(255,144,39)"/><path d=" M 754.181 992.953 L 760.238 959.702 L 742.975 960.616 L 754.181 992.953 Z " fill="rgb(255,144,39)"/></g><path d=" M 745.095 1280.015 C 744.984 1278.801 743.693 1277.9 742.226 1277.992 L 740.951 1278.07 L 740.744 1275.877 L 742.019 1275.798 C 743.501 1275.707 744.585 1274.65 744.474 1273.449 C 744.362 1272.234 743.087 1271.334 741.605 1271.425 L 740.329 1271.503 L 737.142 1237.535 C 737.126 1237.443 737.11 1237.352 737.11 1237.261 C 739.341 1236.451 740.808 1234.558 740.616 1232.443 C 740.361 1229.767 737.508 1227.757 734.257 1227.966 L 730.702 1228.188 L 728.375 1203.318 C 728.152 1200.981 726.064 1199.114 723.402 1198.645 L 631.175 1154.35 L 628.912 1130.368 L 637.838 1129.794 L 637.073 1119.937 L 623.062 1120.825 C 622.887 1120.825 622.712 1120.851 622.536 1120.877 C 622.313 1120.877 622.106 1120.877 621.883 1120.89 C 618.519 1121.099 615.985 1123.123 616.192 1125.381 L 619.237 1157.809 C 619.285 1158.175 619.38 1158.527 619.556 1158.854 C 619.795 1159.82 620.416 1160.629 621.389 1161.099 L 716.006 1206.543 L 718.126 1228.984 L 714.587 1229.206 C 711.319 1229.415 708.881 1231.765 709.136 1234.428 C 709.327 1236.543 711.144 1238.24 713.503 1238.749 C 713.503 1238.853 713.519 1238.945 713.519 1239.036 L 716.723 1273.005 L 715.448 1273.083 C 713.981 1273.174 712.882 1274.232 712.993 1275.433 C 713.105 1276.647 714.396 1277.548 715.862 1277.456 L 717.137 1277.378 L 717.345 1279.571 L 716.069 1279.65 C 714.603 1279.741 713.503 1280.798 713.615 1282.012 C 713.726 1283.214 715.017 1284.127 716.484 1284.023 L 717.759 1283.945 L 718.508 1315.433 C 719.018 1320.785 726.956 1325.08 733.475 1324.676 C 739.995 1324.258 747.837 1319.793 747.327 1314.441 L 741.366 1282.456 L 742.641 1282.365 C 744.107 1282.274 745.207 1281.229 745.095 1280.015 Z " fill="rgb(44,46,53)"/><path d=" M 775.094 1132.874 L 636.42 1141.647 L 635.256 1129.324 L 635.113 1129.337 L 633.375 1107.13 L 771.858 1098.384 L 775.094 1132.874 Z  M 768.096 1104.337 L 640.883 1111.047 L 641.154 1114.284 L 768.351 1107.587 L 768.096 1104.337 Z " fill-rule="evenodd" fill="rgb(255,144,39)"/></g><g><path d=" M 550.956 1319.029 C 550.956 1335.109 498.579 1348.142 433.96 1348.142 C 369.342 1348.142 316.948 1335.109 316.948 1319.029 C 316.948 1302.948 369.342 1289.916 433.96 1289.916 C 498.579 1289.916 550.956 1302.948 550.956 1319.029 Z " fill="rgb(255,144,39)"/><path d=" M 556.953 1318.584 C 557.184 1322.769 554.004 1326.344 549.819 1326.591 C 549.704 1326.607 549.588 1326.607 549.473 1326.607 L 503.143 1570.237 C 503.143 1570.286 503.176 1570.319 503.176 1570.369 C 503.176 1575.839 471.048 1580.254 431.439 1580.254 C 391.815 1580.254 359.703 1575.839 359.703 1570.369 C 359.703 1570.319 359.72 1570.286 359.72 1570.237 L 313.356 1326.344 C 313.241 1326.344 313.142 1326.377 313.043 1326.36 C 308.859 1326.113 305.679 1322.538 305.926 1318.353 C 308.348 1277.41 322.253 1239.318 345.056 1211.111 C 368.468 1182.18 399.147 1166.247 431.423 1166.247 C 463.749 1166.247 494.443 1182.212 517.856 1211.194 C 540.675 1239.45 554.564 1277.592 556.953 1318.584 Z  M 322.352 1305.469 C 342.338 1293.656 387.91 1287.395 431.439 1287.395 C 474.952 1287.395 520.508 1293.656 540.51 1305.469 C 531.349 1234.853 485.316 1181.389 431.423 1181.389 C 377.563 1181.389 331.513 1234.87 322.352 1305.469 Z  M 543.64 1323.905 C 542.602 1322.703 541.927 1321.187 541.828 1319.473 C 541.68 1316.969 541.482 1314.481 541.251 1312.01 C 527.807 1301.745 486.42 1292.436 431.439 1292.436 C 376.426 1292.436 335.022 1301.762 321.611 1312.01 C 321.38 1314.415 321.183 1316.821 321.051 1319.259 C 320.935 1321.022 320.21 1322.571 319.123 1323.807 C 329.091 1334.911 372.439 1345.621 431.439 1345.621 C 490.242 1345.621 533.508 1334.977 543.64 1323.905 Z " fill-rule="evenodd" fill="rgb(44,46,53)"/></g><g><path d=" M 1029.157 602.225 L 1028.601 603.585 C 1027.176 607.443 1023.486 610.02 1019.381 610.02 C 1018.526 610.02 1017.671 609.917 1016.856 609.697 L 1068.614 660.717 C 1071.23 663.462 1074.972 664.148 1076.953 662.245 C 1078.934 660.341 1078.416 656.586 1075.801 653.841 L 1029.157 602.225 Z " fill="rgb(44,46,53)"/><path d=" M 1096.364 603.572 C 1093.645 603.572 1091.171 602.458 1089.384 600.658 L 1091.146 649.244 C 1091.133 652.183 1093.412 654.579 1096.222 654.579 C 1099.032 654.592 1101.324 652.209 1101.324 649.27 L 1103.266 600.736 C 1101.492 602.484 1099.058 603.572 1096.39 603.572 L 1096.364 603.572 Z " fill="rgb(44,46,53)"/><path d=" M 1162.431 603.766 L 1161.732 602.057 L 1117.031 654.061 C 1114.48 656.871 1114.053 660.639 1116.073 662.491 C 1118.106 664.343 1121.835 663.566 1124.386 660.769 L 1173.322 610.059 C 1172.778 610.15 1172.221 610.202 1171.664 610.202 C 1167.559 610.202 1163.856 607.612 1162.431 603.766 Z " fill="rgb(44,46,53)"/><path d=" M 1028.588 465.882 L 1022.074 468.433 L 1023.641 474.131 L 1030.556 472.978 C 1031.747 475.931 1033.379 478.702 1035.373 481.188 L 1031.009 486.666 L 1035.218 490.809 L 1037.458 488.971 L 1041.097 469.896 C 1039.064 465.532 1038.494 460.469 1039.789 455.471 C 1040.838 451.444 1042.961 447.986 1045.784 445.319 L 1050.006 423.214 L 1047.312 423.952 L 1048.465 430.867 C 1045.512 432.059 1042.741 433.69 1040.255 435.684 L 1034.777 431.32 L 1030.634 435.529 L 1035.075 440.929 C 1033.133 443.389 1031.54 446.173 1030.362 449.216 L 1023.46 448.167 L 1021.971 453.891 L 1028.51 456.338 C 1028.057 459.576 1028.096 462.774 1028.588 465.882 Z " fill="rgb(44,46,53)"/><path d=" M 1143.836 431.049 L 1146.672 445.953 C 1150.414 449.825 1152.732 455.082 1152.732 460.871 C 1152.732 463.784 1152.137 466.555 1151.088 469.081 L 1153.924 483.959 C 1155.128 482.768 1156.241 481.499 1157.252 480.139 L 1163.648 482.988 L 1166.614 477.873 L 1160.955 473.768 C 1162.198 470.893 1163.053 467.799 1163.415 464.561 L 1170.369 463.823 L 1170.369 457.918 L 1163.415 457.193 C 1163.053 453.956 1162.198 450.861 1160.955 447.986 L 1166.614 443.881 L 1163.648 438.753 L 1157.252 441.615 C 1155.361 439.051 1153.082 436.772 1150.518 434.869 L 1153.38 428.472 L 1148.252 425.519 L 1144.147 431.178 C 1144.043 431.139 1143.94 431.1 1143.836 431.049 Z " fill="rgb(44,46,53)"/><path d=" M 1054.719 530.046 L 1137.608 530.046 C 1148.381 530.046 1157.122 522.885 1157.122 514.053 L 1138.825 418.229 C 1138.825 412.052 1132.726 407.041 1125.176 407.041 L 1067.164 407.041 C 1059.614 407.041 1053.502 412.052 1053.502 418.229 L 1035.218 514.053 C 1035.218 522.885 1043.958 530.046 1054.719 530.046 Z " fill="rgb(255,144,39)"/><path d=" M 1056.208 532.545 L 1027.37 602.963 C 1025.92 606.913 1021.556 608.946 1017.607 607.508 C 1013.67 606.071 1011.624 601.707 1013.061 597.757 L 1036.5 524.413 C 1040.462 529.32 1047.157 532.545 1054.719 532.545 L 1056.208 532.545 Z  M 1026.114 599.609 C 1026.114 596.67 1023.732 594.287 1020.779 594.287 C 1017.84 594.287 1015.457 596.67 1015.457 599.609 C 1015.457 602.562 1017.84 604.944 1020.779 604.944 C 1023.732 604.944 1026.114 602.562 1026.114 599.609 Z " fill-rule="evenodd" fill="rgb(255,144,39)"/><path d=" M 1174.267 607.508 C 1170.317 608.946 1165.953 606.913 1164.516 602.963 L 1135.665 532.545 L 1137.763 532.545 C 1145.066 532.545 1151.541 529.554 1155.542 524.944 L 1178.812 597.757 C 1180.249 601.707 1178.216 606.071 1174.267 607.508 Z  M 1177.724 599.609 C 1177.724 596.67 1175.329 594.287 1172.389 594.287 C 1169.45 594.287 1167.054 596.67 1167.054 599.609 C 1167.054 602.562 1169.45 604.944 1172.389 604.944 C 1175.329 604.944 1177.724 602.562 1177.724 599.609 Z " fill-rule="evenodd" fill="rgb(255,144,39)"/><path d=" M 1106.257 532.545 L 1103.978 593.717 C 1103.978 597.913 1100.586 601.331 1096.377 601.344 C 1096.377 601.344 1096.377 601.344 1096.364 601.344 C 1092.169 601.344 1088.763 597.952 1088.763 593.756 L 1086.173 532.545 L 1106.257 532.545 Z  M 1101.505 592.539 C 1101.505 589.586 1099.109 587.204 1096.17 587.204 C 1093.23 587.204 1090.835 589.586 1090.835 592.539 C 1090.835 595.478 1093.23 597.861 1096.17 597.861 C 1099.109 597.861 1101.505 595.478 1101.505 592.539 Z " fill-rule="evenodd" fill="rgb(255,144,39)"/><path d=" M 830.231 211.066 L 830.231 236.499 L 1450.656 236.499 L 1450.656 211.066 L 830.231 211.066 Z " fill="rgb(44,46,53)"/><g><path d=" M 1147.281 463.24 L 1073.729 530.046 L 1102.036 530.046 L 1151.45 485.163 L 1147.281 463.24 Z " fill="rgb(44,46,53)"/><path d=" M 1125.034 407.041 L 1106.387 407.041 L 1044.826 462.943 L 1038.895 494.047 L 1132.622 408.931 C 1130.447 407.74 1127.844 407.041 1125.034 407.041 Z " fill="rgb(44,46,53)"/><path d=" M 1125.111 530.046 L 1137.465 530.046 C 1148.239 530.046 1156.967 522.885 1156.967 514.053 L 1154.869 503.021 L 1125.111 530.046 Z " fill="rgb(44,46,53)"/><path d=" M 1139.679 423.473 L 1035.671 517.925 C 1037.51 523.934 1043.466 528.595 1050.964 529.761 L 1143.862 445.383 L 1139.679 423.473 Z " fill="rgb(44,46,53)"/><path d=" M 1067.008 407.041 C 1059.472 407.041 1053.36 412.052 1053.36 418.229 L 1049.669 437.588 L 1083.311 407.041 L 1067.008 407.041 Z " fill="rgb(44,46,53)"/></g><path d=" M 1177.168 238.726 L 1014.706 238.726 C 1013.359 241.601 1012.608 244.799 1012.608 248.179 L 1012.608 267.137 C 1012.608 279.451 1022.579 289.435 1034.894 289.435 L 1045.603 289.435 L 1050.666 289.435 L 1141.958 289.435 L 1147.035 289.435 L 1152.538 289.435 L 1156.98 289.435 C 1169.294 289.435 1179.278 279.451 1179.278 267.137 L 1179.278 248.179 C 1179.278 244.799 1178.514 241.601 1177.168 238.726 Z " fill="rgb(255,144,39)"/><path d=" M 1045.603 291.766 L 1045.499 421.764 L 1050.563 421.764 L 1050.666 291.766 L 1045.603 291.766 Z " fill="rgb(44,46,53)"/><path d=" M 1141.958 291.766 L 1141.868 421.764 L 1146.931 421.764 L 1147.035 291.766 L 1141.958 291.766 Z " fill="rgb(44,46,53)"/></g><g><path d=" M 2703.061 689.141 C 2671.241 703.705 2657.284 741.285 2671.84 773.1 C 2672.022 773.481 2672.218 773.859 2672.395 774.249 L 2696.71 739.45 C 2704.958 727.666 2721.125 724.733 2732.845 732.911 L 2743.098 740.071 C 2754.798 748.26 2757.611 764.455 2749.366 776.253 L 2725.815 809.959 C 2735.8 810.536 2746.064 808.756 2755.79 804.315 C 2787.588 789.748 2801.565 752.158 2786.997 720.36 C 2785.544 717.162 2784.445 710.013 2784.814 706.625 C 2788.771 670.649 2851.295 489.071 2878.322 454.512 C 2884.608 446.482 2895.554 450.913 2905.675 446.766 C 2944.471 430.816 2943.992 398.709 2930.521 369.867 C 2930.351 369.521 2930.177 369.182 2929.999 368.83 L 2908.11 400.659 C 2900.697 411.462 2885.997 414.243 2875.274 406.875 L 2865.9 400.427 C 2855.177 393.058 2852.511 378.339 2859.927 367.55 L 2881.121 336.699 C 2872.039 336.249 2862.701 337.932 2853.884 342.049 C 2825.045 355.535 2809.463 389.468 2822.943 418.316 C 2824.294 421.214 2828.268 425.398 2827.92 428.473 C 2823.759 464.241 2740.934 675.076 2734.198 680.623 C 2724.478 688.616 2713.979 684.138 2703.061 689.141 Z " fill="rgb(44,46,53)"/><path d=" M 2881.121 336.699 C 2877.469 336.03 2872.902 336.912 2869.826 337.256 L 2850.632 367.275 C 2839.619 385.022 2848.444 398.531 2861.197 408.16 L 2872.357 416.594 C 2885.118 426.229 2901.876 423.652 2909.804 410.849 L 2933.425 376.689 C 2932.755 375.029 2931.909 372.465 2931.147 370.828 C 2930.978 370.482 2930.189 369.041 2930.006 368.696 L 2907.669 400.446 C 2900.256 411.25 2885.556 414.031 2874.834 406.662 L 2865.459 400.214 C 2854.737 392.846 2852.511 378.339 2859.927 367.55 L 2881.121 336.699 Z " fill="rgb(255,144,39)"/><path d=" M 2672.395 774.249 C 2670.588 770.876 2668.138 763.308 2667.518 760.161 L 2693.816 730.735 C 2708.063 713.751 2724.29 717.782 2737.889 727.018 L 2749.794 735.113 C 2763.394 744.363 2767.135 761.042 2759.033 774.817 C 2755.626 780.602 2749.358 792.043 2740.2 809.145 C 2736.207 810.46 2726.22 810.009 2725.815 809.959 C 2737.017 792.85 2744.218 781.442 2747.429 775.72 C 2756.443 759.635 2751.363 749.003 2740.663 740.983 L 2731.294 733.96 C 2720.602 725.947 2705.429 728.756 2696.995 739.791 L 2672.395 774.249 Z " fill="rgb(255,144,39)"/></g><g><path d=" M 2871.553 1203.709 L 2856.873 1215.509 C 2854.483 1217.429 2854.263 1220.929 2856.373 1223.329 L 2864.453 1232.529 L 2860.473 1235.439 C 2860.353 1235.449 2860.193 1235.469 2859.983 1235.499 L 2855.523 1230.419 C 2853.853 1228.519 2846.493 1230.759 2845.833 1230.889 C 2818.093 1236.539 2794.553 1242.059 2778.373 1274.589 C 2756.203 1319.189 2757.773 1337.909 2757.273 1360.319 C 2756.763 1382.719 2769.253 1389.599 2769.473 1377.829 C 2771.503 1358.299 2776.593 1342.929 2784.743 1331.729 C 2797.413 1314.309 2806.923 1305.269 2816.823 1306.679 C 2823.433 1307.629 2835.533 1316.479 2853.133 1333.239 L 2855.123 1331.659 L 2899.273 1381.939 L 2920.033 1365.269 L 2875.983 1315.119 L 2878.193 1313.369 C 2874.843 1309.919 2864.543 1296.299 2863.083 1286.179 C 2862.433 1281.709 2865.903 1277.219 2869.553 1272.879 C 2869.703 1272.809 2873.283 1269.969 2880.283 1264.369 C 2881.923 1263.059 2881.903 1260.449 2880.243 1258.559 L 2876.963 1254.819 C 2877.933 1253.659 2879.483 1252.419 2880.993 1251.359 L 2887.683 1258.979 C 2889.793 1261.379 2893.433 1261.769 2895.823 1259.859 L 2910.503 1248.059 C 2912.883 1246.139 2913.113 1242.649 2911.003 1240.249 L 2879.693 1204.589 C 2877.583 1202.189 2873.943 1201.799 2871.553 1203.709 Z " fill="rgb(44,46,53)"/><path d=" M 3069.633 1524.109 C 3071.183 1525.869 3071.103 1528.359 3069.463 1529.669 L 3040.613 1552.849 C 3038.983 1554.169 3036.403 1553.809 3034.853 1552.049 L 2890.243 1387.389 C 2888.703 1385.629 2888.773 1383.139 2890.413 1381.829 L 2919.263 1358.649 C 2920.903 1357.329 2923.483 1357.689 2925.023 1359.449 L 3069.633 1524.109 Z " fill="rgb(255,144,39)"/><path d=" M 3119.093 1571.589 C 3120.633 1573.349 3120.793 1575.649 3119.443 1576.729 L 3080.453 1608.059 C 3079.103 1609.139 3076.763 1608.599 3075.223 1606.839 L 3033.853 1559.729 C 3032.303 1557.969 3032.143 1555.679 3033.493 1554.589 L 3072.483 1523.259 C 3073.833 1522.179 3076.173 1522.729 3077.723 1524.489 L 3119.093 1571.589 Z " fill="rgb(44,46,53)"/></g><g><path d=" M 963.995 1051.614 C 942.284 1073.391 906.432 1072.974 884.094 1050.687 C 861.755 1028.414 861.259 992.563 882.971 970.786 C 904.696 949.022 940.534 949.439 962.873 971.713 C 985.211 993.999 985.72 1029.837 963.995 1051.614 Z  M 942.701 1041.339 C 945.051 1039.877 947.924 1040.543 951.031 1041.744 C 951.579 1041.274 952.102 1040.765 952.611 1040.256 C 953.12 1039.733 953.616 1039.211 954.099 1038.676 C 952.885 1035.569 952.219 1032.683 953.681 1030.333 C 955.144 1027.97 957.99 1027.291 961.293 1027.03 C 961.815 1025.711 962.259 1024.354 962.638 1022.996 C 962.429 1022.8 962.22 1022.617 962.024 1022.421 C 960.314 1020.711 958.368 1018.374 958.643 1015.567 C 958.917 1012.786 961.162 1010.932 963.982 1009.274 C 963.865 1007.838 963.695 1006.402 963.434 1004.992 C 961.306 1004.274 959.413 1003.425 958.12 1002.146 C 957.454 1001.48 956.971 1000.723 956.671 999.9 C 955.718 997.263 956.919 994.613 958.708 991.871 C 958.003 990.631 957.219 989.416 956.384 988.228 C 953.094 988.633 950.143 988.542 948.12 986.518 C 946.083 984.481 945.978 981.544 946.383 978.241 C 945.182 977.405 943.968 976.635 942.728 975.943 C 939.999 977.731 937.349 978.933 934.698 977.992 C 933.876 977.692 933.118 977.209 932.453 976.543 C 931.173 975.251 930.324 973.371 929.593 971.243 C 928.183 970.982 926.747 970.812 925.311 970.707 C 923.653 973.527 921.812 975.773 919.031 976.047 C 916.224 976.334 913.887 974.402 912.164 972.679 C 911.981 972.496 911.785 972.274 911.589 972.078 C 910.232 972.457 908.887 972.914 907.568 973.436 C 907.307 976.739 906.641 979.585 904.265 981.061 C 901.928 982.523 899.043 981.87 895.935 980.656 C 895.4 981.139 894.878 981.635 894.356 982.144 C 893.847 982.666 893.35 983.189 892.88 983.724 C 894.095 986.831 894.747 989.717 893.298 992.067 C 891.836 994.43 888.977 995.109 885.687 995.37 C 885.164 996.701 884.707 998.046 884.342 999.404 C 884.538 999.6 884.747 999.783 884.942 999.979 C 886.666 1001.689 888.598 1004.026 888.324 1006.833 C 888.05 1009.627 885.817 1011.468 882.997 1013.126 C 883.102 1014.562 883.284 1015.998 883.532 1017.421 C 885.674 1018.126 887.554 1018.975 888.846 1020.267 C 889.512 1020.92 890.008 1021.677 890.295 1022.5 C 891.261 1025.15 890.06 1027.787 888.272 1030.529 C 888.977 1031.769 889.747 1032.984 890.596 1034.172 C 893.873 1033.767 896.823 1033.871 898.86 1035.895 C 900.884 1037.919 900.988 1040.869 900.596 1044.159 C 901.784 1044.995 902.999 1045.765 904.252 1046.47 C 906.981 1044.669 909.618 1043.467 912.281 1044.42 C 913.091 1044.708 913.848 1045.191 914.514 1045.857 C 915.806 1047.149 916.655 1049.042 917.373 1051.17 C 918.796 1051.418 920.219 1051.588 921.668 1051.693 C 923.314 1048.873 925.154 1046.627 927.948 1046.353 C 930.755 1046.066 933.092 1047.998 934.803 1049.721 C 934.998 1049.904 935.194 1050.126 935.377 1050.322 C 936.735 1049.943 938.093 1049.486 939.411 1048.964 C 939.659 1045.661 940.338 1042.815 942.701 1041.339 Z " fill-rule="evenodd" fill="rgb(255,144,39)"/><path d=" M 1219.354 814.403 C 1208.244 813.711 1200.188 804.794 1190.866 809.351 C 1150.772 829.013 1012.889 967.561 993.293 998.751 C 992.444 1000.122 991.517 1002.381 990.773 1004.757 C 992.953 1024.367 986.543 1044.747 971.529 1059.8 C 945.247 1086.147 902.607 1086.199 876.26 1059.931 C 849.927 1033.649 849.875 990.996 876.143 964.663 C 897.698 943.055 930.259 939.151 955.796 952.938 C 956.671 952.834 957.559 952.69 958.486 952.468 C 967.116 950.392 1136.567 794.049 1156.255 763.133 C 1157.94 760.483 1156.164 754.882 1156.203 751.618 C 1156.673 719.213 1186.01 695.047 1218.401 695.504 C 1228.31 695.647 1237.606 698.246 1245.727 702.698 L 1212.617 721.537 C 1201.037 728.13 1196.95 742.805 1203.491 754.307 L 1209.223 764.373 C 1215.764 775.875 1230.465 779.857 1242.058 773.264 L 1276.238 753.824 C 1276.238 754.216 1276.251 754.608 1276.251 754.999 C 1275.781 787.404 1261.968 817.014 1219.354 814.403 Z  M 960.366 974.702 C 940.025 954.414 907.098 954.453 886.809 974.794 C 866.534 995.122 866.573 1028.049 886.901 1048.337 C 907.242 1068.626 940.169 1068.574 960.457 1048.246 C 980.733 1027.905 980.694 994.978 960.366 974.702 Z " fill-rule="evenodd" fill="rgb(44,46,53)"/></g><g><g><path d=" M 1615.95 474.305 C 1617.681 476.478 1620.816 476.829 1622.989 475.112 L 1719.588 397.901 C 1721.748 396.17 1722.112 393.021 1720.381 390.862 C 1718.651 388.702 1715.502 388.35 1713.342 390.081 L 1616.744 467.279 C 1614.571 469.009 1614.22 472.158 1615.95 474.305 Z " fill="rgb(44,46,53)"/><path d=" M 1598.293 453.721 C 1600.024 455.881 1603.173 456.232 1605.32 454.514 L 1701.944 377.303 C 1704.104 375.573 1704.442 372.424 1702.725 370.264 C 1700.994 368.104 1697.845 367.753 1695.685 369.483 L 1599.074 446.681 C 1596.914 448.412 1596.576 451.561 1598.293 453.721 Z " fill="rgb(44,46,53)"/><path d=" M 1685.458 348.665 C 1683.728 346.505 1680.579 346.141 1678.419 347.871 L 1581.821 425.082 C 1579.661 426.8 1579.309 429.948 1581.027 432.121 C 1582.757 434.281 1585.906 434.633 1588.066 432.902 L 1684.664 355.704 C 1686.837 353.974 1687.189 350.825 1685.458 348.665 Z " fill="rgb(44,46,53)"/></g><path d=" M 2007.704 100 L 1952.183 122.9 L 1938.417 155.013 L 1763.098 299.117 L 1780.534 320.599 L 1953.771 178.213 L 1993.079 172.097 L 2025.087 121.144 L 2007.704 100 Z " fill="rgb(44,46,53)"/><g><path d=" M 1564.58 414.087 C 1547.522 430.729 1546.26 458.587 1562.316 478.104 C 1563.513 479.562 1564.775 480.928 1566.103 482.216 C 1567.105 483.764 1568.197 485.274 1569.395 486.731 C 1584.345 504.921 1609.288 509.762 1628.506 499.43 L 1564.58 414.087 Z " fill="rgb(44,46,53)"/><path d=" M 1799.232 359.985 C 1794.756 363.654 1788.029 362.861 1784.19 358.189 C 1778.869 354.039 1775.277 351.84 1773.43 351.632 C 1761.719 350.226 1747.302 375.013 1744.336 386.346 C 1740.406 401.31 1737.986 410.327 1725.326 420.723 L 1634.062 495.748 C 1632.293 497.192 1630.458 498.468 1628.558 499.613 L 1564.346 413.879 C 1564.815 413.476 1565.283 413.059 1565.764 412.656 L 1657.028 337.644 C 1669.688 327.235 1679.004 326.597 1694.449 325.66 C 1706.147 324.945 1733.237 315.589 1734.135 303.827 C 1734.278 301.966 1732.833 298.024 1729.776 291.999 C 1725.95 287.341 1726.471 280.575 1730.934 276.893 C 1735.41 273.211 1742.15 274.017 1745.975 278.675 L 1800.39 344.878 C 1804.228 349.537 1803.708 356.303 1799.232 359.985 Z  M 1588.105 432.772 L 1684.704 355.574 C 1686.863 353.843 1687.215 350.695 1685.497 348.535 C 1683.767 346.375 1680.618 346.01 1678.445 347.741 L 1581.847 424.952 C 1579.687 426.669 1579.335 429.818 1581.066 431.991 C 1582.797 434.151 1585.945 434.489 1588.105 432.772 Z  M 1605.359 454.371 L 1701.983 377.173 C 1704.13 375.443 1704.481 372.294 1702.751 370.134 C 1701.033 367.974 1697.871 367.623 1695.724 369.353 L 1599.113 446.551 C 1596.953 448.282 1596.602 451.431 1598.319 453.59 C 1600.05 455.75 1603.212 456.102 1605.359 454.371 Z  M 1720.42 390.731 C 1718.69 388.571 1715.541 388.22 1713.381 389.951 L 1616.77 467.149 C 1614.61 468.879 1614.259 472.028 1615.989 474.175 C 1617.72 476.348 1620.856 476.699 1623.015 474.982 L 1719.627 397.771 C 1721.787 396.04 1722.138 392.891 1720.42 390.731 Z " fill-rule="evenodd" fill="rgb(255,144,39)"/></g></g><g><path d=" M 226.154 989.548 L 223.272 989.561 L 223.445 985.825 L 226.141 985.811 C 229.116 985.798 231.518 983.65 231.505 980.994 C 231.492 978.352 229.063 976.204 226.101 976.217 L 223.886 976.231 L 224.059 972.494 L 226.074 972.481 C 229.05 972.468 231.452 970.319 231.452 967.664 C 231.438 965.022 229.01 962.887 226.034 962.887 L 224.486 962.887 L 224.66 959.164 L 226.021 959.164 C 228.996 959.151 231.398 956.989 231.385 954.347 C 231.385 951.692 228.956 949.557 225.981 949.557 L 225.1 949.557 L 225.273 945.821 L 225.967 945.821 C 228.943 945.821 231.345 943.659 231.331 941.017 C 231.318 938.362 228.903 936.227 225.927 936.227 L 225.7 936.227 L 225.874 932.49 L 225.914 932.49 C 228.89 932.49 231.291 930.342 231.278 927.687 C 231.265 925.165 229.076 923.11 226.314 922.923 L 226.915 909.833 L 221.31 909.846 L 221.31 903.295 L 185.59 903.295 L 185.59 909.953 L 182.574 909.966 L 183.281 923.043 C 180.519 923.257 178.357 925.325 178.357 927.847 C 178.371 930.489 180.799 932.637 183.775 932.624 L 183.802 932.624 L 184.002 936.36 L 183.788 936.36 C 180.813 936.36 178.411 938.522 178.424 941.177 C 178.438 943.819 180.853 945.967 183.828 945.954 L 184.522 945.954 L 184.722 949.677 L 183.842 949.69 C 180.866 949.704 178.464 951.852 178.478 954.494 C 178.491 957.149 180.906 959.284 183.882 959.284 L 185.243 959.284 L 185.443 963.007 L 183.895 963.007 C 180.919 963.02 178.518 965.182 178.531 967.838 C 178.544 970.48 180.959 972.615 183.935 972.615 L 185.59 972.601 L 185.59 976.337 L 183.948 976.351 C 180.973 976.351 178.571 978.512 178.584 981.154 C 178.598 983.81 181.026 985.945 184.002 985.931 L 185.59 985.931 L 185.59 989.668 L 184.015 989.668 C 181.04 989.681 178.638 991.829 178.651 994.485 C 178.651 997.127 181.08 999.275 184.055 999.275 L 185.59 999.262 L 185.59 1007.815 L 221.31 1007.815 L 221.31 999.155 L 226.194 999.142 C 229.17 999.142 231.572 996.98 231.558 994.338 C 231.545 991.682 229.13 989.534 226.154 989.548 Z " fill="rgb(44,46,53)"/><path d=" M 191.127 1007.815 L 202.483 1137.207 L 204.431 1137.194 L 214.679 1007.815 L 191.127 1007.815 Z " fill="rgb(255,144,39)"/><g><path d=" M 428.309 1086.689 C 385.076 1071.57 383.448 969.986 381.38 898.091 C 380.166 855.992 379.205 822.726 371.959 806.54 C 355.56 769.926 303.867 763.334 279.462 762.307 L 279.462 775.503 C 301.532 776.544 346.74 782.362 359.977 811.905 C 366.155 825.715 367.182 861.049 368.263 898.478 C 370.558 978.099 369.597 1071.517 423.078 1098.725 C 445.749 1110.267 488.422 1107.598 489.716 1107.598 L 489.796 1094.481 C 489.503 1094.481 459.56 1097.617 428.309 1086.689 Z " fill="rgb(44,46,53)"/><path d=" M 278.127 758.357 C 277.3 756.062 275.112 754.421 272.536 754.421 C 270.428 754.421 268.587 755.515 267.519 757.156 L 244.675 757.156 L 244.675 757.116 L 230.317 757.156 L 230.317 757.156 L 228.463 757.156 L 222.058 757.156 L 222.058 757.183 L 219.082 757.196 L 219.082 757.156 L 183.361 757.156 L 183.361 757.303 L 175.262 757.329 L 180.239 903.295 L 224.713 903.295 L 227.849 781.001 L 267.492 781.001 C 268.56 782.669 270.415 783.79 272.536 783.79 C 275.112 783.79 277.3 782.135 278.127 779.853 L 278.127 758.357 Z " fill="rgb(255,144,39)"/><path d=" M 142.93 693.32 C 140.929 694.535 138.594 695.255 136.072 695.255 L 73.237 695.255 C 65.925 695.255 60 689.331 60 682.018 L 60 676.734 C 60 669.422 65.925 663.497 73.237 663.497 L 136.072 663.497 C 140.849 663.497 145.012 666.033 147.334 669.822 L 250.479 669.822 C 252.815 666.033 256.978 663.497 261.755 663.497 L 324.59 663.497 C 331.902 663.497 337.813 669.422 337.813 676.734 L 337.813 682.018 C 337.813 689.331 331.902 695.255 324.59 695.255 L 261.755 695.255 C 260.874 695.255 260.02 695.162 259.206 695.002 C 250.373 712.268 230.237 750.217 223.752 750.244 L 219.082 750.257 L 219.082 755.261 L 183.361 755.261 L 183.361 750.364 L 179.905 750.377 C 173.153 750.391 151.243 709.359 142.93 693.32 Z  M 208.3 690.171 L 208.461 729.495 L 214.785 729.481 C 218.121 729.468 228.436 717.005 245.756 692.079 C 245.756 691.426 245.609 690.798 245.329 690.171 L 208.3 690.171 Z  M 157.395 692.346 C 174.928 717.165 185.363 729.575 188.699 729.548 L 197.065 729.535 L 196.892 690.171 L 157.942 690.171 C 157.595 690.878 157.395 691.599 157.395 692.346 Z " fill-rule="evenodd" fill="rgb(44,46,53)"/></g></g><g><g><path d=" M 2391.358 437.089 L 2389.691 446.246 C 2388.755 451.478 2383.633 454.962 2378.263 454.039 L 2359.66 456.366 L 2356.369 461.902 L 2355.227 468.208 L 2367.949 481.633 C 2372.672 484.277 2374.283 490.157 2371.557 494.756 L 2366.793 502.797 C 2364.066 507.396 2358.022 508.979 2353.299 506.322 L 2335.013 502.301 L 2329.973 506.418 L 2326.682 511.967 L 2333.925 528.807 C 2337.423 532.869 2336.885 538.942 2332.7 542.343 L 2325.388 548.319 C 2321.216 551.734 2314.992 551.197 2311.481 547.135 L 2295.701 537.276 L 2289.518 539.465 L 2284.479 543.582 L 2285.374 561.813 C 2287.233 566.797 2284.589 572.319 2279.467 574.137 L 2270.503 577.304 C 2265.381 579.121 2259.708 576.546 2257.849 571.562 L 2246.475 557.049 L 2239.907 557.049 L 2233.725 559.238 L 2228.148 576.656 C 2228.148 581.971 2223.728 586.267 2218.275 586.267 L 2208.733 586.267 C 2203.28 586.267 2198.86 581.971 2198.86 576.656 L 2193.284 559.224 L 2187.101 557.049 L 2180.533 557.049 L 2169.173 571.562 C 2167.301 576.546 2161.628 579.121 2156.519 577.304 L 2147.541 574.137 C 2142.419 572.319 2139.775 566.797 2141.648 561.813 L 2142.529 543.568 L 2137.49 539.465 L 2131.307 537.276 L 2115.527 547.135 C 2112.03 551.197 2105.792 551.734 2101.62 548.319 L 2094.309 542.343 C 2090.137 538.942 2089.586 532.869 2093.097 528.807 L 2100.326 511.967 L 2097.035 506.418 L 2092.009 502.301 L 2073.709 506.322 C 2068.987 508.979 2062.942 507.396 2060.229 502.797 L 2055.451 494.756 C 2052.725 490.157 2054.35 484.277 2059.059 481.633 L 2071.782 468.208 L 2070.639 461.902 L 2067.362 456.366 L 2048.745 454.039 C 2043.389 454.962 2038.267 451.478 2037.317 446.246 L 2035.664 437.089 C 2034.714 431.87 2038.294 426.886 2043.664 425.963 L 2060.326 417.591 L 2061.468 411.285 L 2060.326 404.979 L 2043.664 396.607 C 2038.294 395.684 2034.714 390.7 2035.664 385.481 L 2037.317 376.324 C 2038.267 371.092 2043.389 367.608 2048.745 368.531 L 2067.348 366.204 L 2070.639 360.668 L 2071.782 354.362 L 2059.059 340.95 C 2054.336 338.293 2052.725 332.413 2055.451 327.814 L 2060.229 319.773 C 2062.942 315.174 2068.987 313.604 2073.709 316.248 L 2091.995 320.269 L 2097.035 316.152 L 2100.326 310.603 L 2093.097 293.762 C 2089.586 289.7 2090.137 283.628 2094.309 280.227 L 2101.62 274.251 C 2105.792 270.836 2112.016 271.373 2115.527 275.435 L 2131.307 285.294 L 2137.49 283.105 L 2142.529 279.002 L 2141.634 260.757 C 2139.775 255.773 2142.419 250.251 2147.541 248.433 L 2156.505 245.266 C 2161.628 243.449 2167.301 246.024 2169.173 251.008 L 2180.533 265.535 L 2187.101 265.535 L 2193.284 263.346 L 2198.86 245.914 C 2198.86 240.599 2203.28 236.302 2208.733 236.302 L 2218.275 236.302 C 2223.728 236.302 2228.148 240.599 2228.148 245.914 L 2233.725 263.332 L 2239.907 265.535 L 2246.489 265.535 L 2257.849 251.008 C 2259.708 246.024 2265.381 243.449 2270.503 245.266 L 2279.467 248.433 C 2284.589 250.251 2287.233 255.773 2285.374 260.757 L 2284.479 278.988 L 2289.518 283.105 L 2295.701 285.294 L 2311.481 275.435 C 2314.992 271.373 2321.216 270.836 2325.388 274.251 L 2332.7 280.227 C 2336.885 283.628 2337.423 289.7 2333.925 293.762 L 2326.682 310.603 L 2329.973 316.152 L 2335.013 320.269 L 2353.299 316.248 C 2358.022 313.604 2364.066 315.174 2366.793 319.773 L 2371.557 327.814 C 2374.283 332.413 2372.672 338.293 2367.949 340.95 L 2355.227 354.362 L 2356.369 360.668 L 2359.66 366.217 L 2378.263 368.531 C 2383.633 367.608 2388.755 371.092 2389.691 376.324 L 2391.358 385.481 C 2392.308 390.7 2388.714 395.684 2383.344 396.607 L 2366.683 404.979 L 2365.54 411.285 L 2366.683 417.591 L 2383.344 425.963 C 2388.714 426.886 2392.308 431.87 2391.358 437.089 Z  M 2332.025 385.605 C 2329.216 373.309 2324.438 361.742 2318.035 351.223 C 2317.829 351.484 2317.636 351.746 2317.402 351.994 L 2274.262 376.806 C 2268.754 367.195 2261.167 358.933 2252.107 352.641 L 2276.19 310.768 C 2276.341 310.63 2276.506 310.52 2276.672 310.382 C 2266.248 304.172 2254.792 299.463 2242.62 296.53 C 2242.62 296.654 2242.647 296.764 2242.647 296.888 L 2230.392 342.327 C 2223.907 340.469 2217.077 339.45 2210 339.45 C 2205.277 339.45 2200.664 339.918 2196.189 340.758 L 2184.361 296.888 C 2184.361 296.764 2184.389 296.654 2184.402 296.53 C 2172.23 299.463 2160.774 304.172 2150.35 310.382 C 2150.502 310.52 2150.681 310.63 2150.832 310.768 L 2173.043 349.377 C 2162.702 355.367 2153.958 363.767 2147.555 373.818 L 2109.607 351.994 C 2109.372 351.76 2109.18 351.484 2108.987 351.223 C 2102.57 361.742 2097.806 373.309 2094.997 385.605 C 2095.231 385.577 2095.465 385.522 2095.713 385.522 L 2137.875 396.896 C 2136.65 402.225 2135.989 407.774 2135.989 413.461 C 2135.989 419.973 2136.842 426.28 2138.426 432.297 L 2096.691 443.547 C 2100.092 455.196 2105.283 466.101 2111.961 476.001 L 2148.684 454.879 C 2155.184 464.476 2163.9 472.477 2174.075 478.15 L 2153.462 513.978 C 2163.5 519.568 2174.433 523.795 2185.986 526.412 L 2196.809 486.287 C 2201.091 487.058 2205.497 487.485 2210 487.485 C 2216.857 487.485 2223.494 486.521 2229.786 484.773 L 2241.022 526.412 C 2252.575 523.795 2263.508 519.568 2273.546 513.978 L 2251.115 474.983 C 2260.038 468.993 2267.598 461.117 2273.215 451.932 L 2315.047 476.001 C 2321.725 466.115 2326.916 455.196 2330.317 443.547 L 2282.014 430.521 C 2283.308 425.041 2284.011 419.34 2284.011 413.461 C 2284.011 408.407 2283.501 403.45 2282.524 398.672 L 2331.295 385.522 C 2331.543 385.522 2331.777 385.577 2332.025 385.605 Z " fill-rule="evenodd" fill="rgb(44,46,53)"/><g><path d=" M 2209.545 487.485 C 2168.733 487.485 2135.521 454.273 2135.521 413.461 C 2135.521 372.648 2168.733 339.45 2209.545 339.45 C 2250.358 339.45 2283.556 372.648 2283.556 413.461 C 2283.556 454.273 2250.358 487.485 2209.545 487.485 Z  M 2209.545 362.858 C 2181.635 362.858 2158.929 385.564 2158.929 413.461 C 2158.929 441.371 2181.635 464.077 2209.545 464.077 C 2237.442 464.077 2260.148 441.371 2260.148 413.461 C 2260.148 385.564 2237.442 362.858 2209.545 362.858 Z " fill-rule="evenodd" fill="rgb(255,144,39)"/></g></g><path d=" M 2558.505 471.32 L 2557.321 477.668 C 2556.646 481.317 2552.997 483.74 2549.17 483.093 L 2535.91 484.704 L 2533.555 488.559 L 2532.742 492.952 L 2541.817 502.274 C 2545.176 504.119 2546.333 508.208 2544.391 511.403 L 2540.99 516.993 C 2539.049 520.188 2534.739 521.289 2531.366 519.444 L 2518.326 516.649 L 2514.732 519.513 L 2512.391 523.369 L 2517.555 535.073 C 2520.047 537.895 2519.661 542.109 2516.687 544.491 L 2511.469 548.636 C 2508.494 551.004 2504.061 550.646 2501.555 547.809 L 2490.305 540.952 L 2485.899 542.481 L 2482.305 545.345 L 2482.938 558.013 C 2484.274 561.482 2482.388 565.324 2478.739 566.577 L 2472.336 568.794 C 2468.687 570.047 2464.653 568.271 2463.317 564.801 L 2455.22 554.708 L 2450.525 554.708 L 2446.119 556.222 L 2442.153 568.34 C 2442.153 572.03 2439 575.018 2435.103 575.018 L 2428.301 575.018 C 2424.418 575.018 2421.265 572.03 2421.265 568.34 L 2417.285 556.222 L 2412.893 554.708 L 2408.198 554.708 L 2400.101 564.801 C 2398.766 568.271 2394.731 570.047 2391.082 568.794 L 2384.679 566.577 C 2381.031 565.324 2379.144 561.482 2380.48 558.013 L 2381.099 545.345 L 2377.519 542.481 L 2373.099 540.952 L 2361.863 547.809 C 2359.357 550.646 2354.923 551.004 2351.949 548.636 L 2346.731 544.491 C 2343.756 542.109 2343.371 537.895 2345.863 535.073 L 2351.027 523.369 L 2348.672 519.513 L 2345.092 516.649 L 2332.039 519.444 C 2328.679 521.289 2324.369 520.188 2322.428 516.993 L 2319.027 511.403 C 2317.085 508.208 2318.242 504.119 2321.601 502.274 L 2330.662 492.938 L 2329.849 488.559 L 2327.509 484.704 L 2314.249 483.093 C 2310.421 483.74 2306.772 481.303 2306.097 477.668 L 2304.913 471.32 C 2304.238 467.685 2306.799 464.215 2310.627 463.568 L 2322.496 457.757 L 2323.323 453.364 L 2322.496 448.986 L 2310.627 443.161 C 2306.799 442.528 2304.238 439.058 2304.913 435.423 L 2306.097 429.061 C 2306.772 425.426 2310.421 423.003 2314.249 423.65 L 2327.509 422.025 L 2329.849 418.183 L 2330.662 413.791 L 2321.601 404.469 C 2318.242 402.624 2317.085 398.534 2319.027 395.34 L 2322.428 389.75 C 2324.369 386.555 2328.679 385.453 2332.039 387.299 L 2345.078 390.094 L 2348.672 387.23 L 2351.027 383.374 L 2345.863 371.67 C 2343.357 368.847 2343.743 364.62 2346.731 362.252 L 2351.936 358.107 C 2354.923 355.725 2359.357 356.097 2361.863 358.92 L 2373.099 365.777 L 2377.519 364.262 L 2381.099 361.398 L 2380.466 348.716 C 2379.144 345.247 2381.031 341.419 2384.679 340.152 L 2391.068 337.949 C 2394.731 336.682 2398.766 338.472 2400.101 341.942 L 2408.198 352.035 L 2412.893 352.035 L 2417.285 350.52 L 2421.265 338.403 C 2421.265 334.699 2424.418 331.711 2428.301 331.711 L 2435.103 331.711 C 2439 331.711 2442.153 334.699 2442.153 338.403 L 2446.119 350.52 L 2450.525 352.035 L 2455.22 352.035 L 2463.317 341.942 C 2464.653 338.472 2468.687 336.682 2472.336 337.949 L 2478.739 340.152 C 2482.388 341.419 2484.274 345.247 2482.938 348.716 L 2482.305 361.398 L 2485.899 364.262 L 2490.305 365.777 L 2501.555 358.92 C 2504.061 356.097 2508.494 355.725 2511.469 358.107 L 2516.687 362.252 C 2519.661 364.62 2520.061 368.847 2517.555 371.67 L 2512.391 383.374 L 2514.732 387.23 L 2518.326 390.094 L 2531.366 387.299 C 2534.739 385.453 2539.049 386.555 2540.99 389.75 L 2544.391 395.34 C 2546.333 398.534 2545.176 402.624 2541.817 404.469 L 2532.742 413.791 L 2533.555 418.183 L 2535.91 422.039 L 2549.17 423.65 C 2552.997 423.003 2556.646 425.426 2557.321 429.061 L 2558.505 435.423 C 2559.18 439.058 2556.619 442.528 2552.791 443.161 L 2540.908 448.986 L 2540.095 453.364 L 2540.908 457.757 L 2552.791 463.568 C 2556.619 464.215 2559.18 467.685 2558.505 471.32 Z  M 2518.257 453.364 C 2518.257 408.063 2479.441 371.202 2431.716 371.202 C 2383.977 371.202 2345.147 408.063 2345.147 453.364 C 2345.147 498.68 2383.977 535.541 2431.716 535.541 C 2479.441 535.541 2518.257 498.68 2518.257 453.364 Z " fill-rule="evenodd" fill="rgb(255,144,39)"/></g><g><path d=" M 1441.475 1584.081 L 1436.083 1584.053 L 1376.095 1583.659 L 1376 1596.575 L 1435.988 1596.983 L 1435.812 1624.58 L 1450.384 1624.675 L 1450.656 1584.148 L 1441.475 1584.081 Z " fill="rgb(44,46,53)"/><g><path d=" M 1172.946 1618.074 L 1434.82 1619.826 L 1434.943 1601.6 L 1173.055 1599.835 L 1172.946 1618.074 Z " fill="rgb(255,144,39)"/><path d=" M 874.553 1456.444 C 895.807 1401.358 949.453 1365.015 1008.491 1365.694 C 1022.371 1365.803 1028.279 1360.071 1021.407 1349.912 C 1014.548 1339.808 997.49 1329.092 983.624 1328.984 C 924.586 1328.305 870.94 1364.648 849.672 1419.734 C 844.647 1432.65 848.273 1452.465 855.118 1462.583 C 862.004 1472.741 869.514 1469.36 874.553 1456.444 Z " fill="rgb(255,144,39)"/><path d=" M 1116.965 1383.078 C 1121.501 1388.008 1125.67 1393.196 1129.5 1398.588 C 1129.554 1398.52 1129.609 1398.465 1129.677 1398.411 C 1141.886 1386.012 1154.136 1378.284 1141.737 1366.061 L 1113.841 1362.475 C 1113.759 1362.394 1113.678 1362.312 1113.583 1362.244 C 1113.501 1362.163 1113.42 1362.081 1113.325 1362 L 1108.123 1334.362 C 1095.221 1322.696 1088.199 1335.367 1076.547 1348.283 C 1075.895 1349.003 1075.297 1349.736 1074.727 1350.483 C 1090.4 1358.767 1104.701 1369.728 1116.965 1383.078 Z " fill="rgb(44,46,53)"/><path d=" M 1172.946 1577.602 L 1172.634 1623.181 C 1172.498 1643.132 1160.017 1649.053 1102.202 1648.659 L 899.094 1647.288 C 870.886 1647.098 848.11 1630.773 848.246 1610.836 C 848.708 1542.956 848.979 1501.982 849.074 1487.912 C 849.129 1479.831 849.808 1471.913 851.071 1464.172 C 851.247 1464.443 851.41 1464.715 851.587 1464.959 C 855.091 1470.134 859.056 1472.755 863.389 1472.796 C 867.653 1472.809 873.724 1470.27 878.532 1457.979 C 898.985 1404.944 950.934 1369.564 1007.785 1369.945 L 1008.532 1369.945 C 1020.701 1370.04 1025.454 1365.938 1027.301 1362.475 C 1028.863 1359.569 1029.719 1354.612 1024.924 1347.522 C 1022.466 1343.896 1018.786 1340.161 1014.399 1336.806 C 1093.224 1343.298 1154.911 1409.589 1154.367 1489.962 C 1154.232 1510.769 1137.092 1528.615 1141.94 1549.367 C 1144.168 1558.887 1173.001 1568.734 1172.946 1577.602 Z  M 875.558 1606.571 L 886.898 1609.192 L 889.669 1597.159 L 876.59 1601.519 L 875.558 1606.571 Z  M 883.231 1625.069 L 886.219 1612.085 L 874.96 1609.477 L 873.521 1616.472 L 883.231 1625.069 Z  M 900.724 1615.44 L 889.125 1612.764 L 886.015 1626.237 L 899.42 1621.769 L 900.724 1615.44 Z  M 902.489 1606.816 L 892.534 1598.001 L 889.791 1609.858 L 901.321 1612.52 L 902.489 1606.816 Z  M 1103.22 1493.032 C 1103.601 1435.977 1057.492 1389.257 1000.451 1388.877 C 943.396 1388.483 896.663 1434.592 896.283 1491.646 C 895.902 1548.701 941.997 1595.421 999.052 1595.815 C 1056.107 1596.181 1102.84 1550.087 1103.22 1493.032 Z  M 1142.62 1474.072 L 1131.021 1471.383 L 1127.911 1484.869 L 1141.316 1480.388 L 1142.62 1474.072 Z  M 1119.423 1604.194 L 1118.377 1609.26 L 1129.731 1611.868 L 1132.502 1599.848 L 1119.423 1604.194 Z  M 1131.7 1468.49 L 1143.217 1471.139 L 1144.385 1465.448 L 1134.444 1456.62 L 1131.7 1468.49 Z  M 1117.453 1465.19 L 1128.794 1467.811 L 1131.578 1455.778 L 1118.486 1460.138 L 1117.453 1465.19 Z  M 1115.43 1475.091 L 1125.127 1483.701 L 1128.128 1470.704 L 1116.856 1468.11 L 1115.43 1475.091 Z  M 1126.05 1627.744 L 1129.052 1614.774 L 1117.779 1612.166 L 1116.353 1619.147 L 1126.05 1627.744 Z  M 1143.543 1618.115 L 1131.958 1615.44 L 1128.835 1628.926 L 1142.253 1624.458 L 1143.543 1618.115 Z  M 1145.309 1609.505 L 1135.367 1600.677 L 1132.624 1612.547 L 1144.141 1615.209 L 1145.309 1609.505 Z " fill-rule="evenodd" fill="rgb(44,46,53)"/><g><g><path d=" M 997.599 1462.433 L 994 1482.017 L 1000.818 1482.058 L 997.599 1462.433 Z " fill="rgb(44,46,53)"/><path d=" M 981.369 1522.123 L 979.169 1520.357 C 978.667 1520.792 978.3 1521.308 978.083 1521.946 C 977.879 1522.571 977.77 1523.508 977.77 1524.744 C 977.757 1526.523 978.001 1527.827 978.517 1528.655 C 979.047 1529.497 979.902 1529.918 981.098 1529.918 C 982.008 1529.932 982.782 1529.647 983.393 1529.09 C 984.018 1528.533 984.33 1527.745 984.33 1526.74 C 984.344 1525.803 984.126 1525.016 983.678 1524.377 C 983.243 1523.739 982.469 1522.978 981.369 1522.123 Z " fill="rgb(44,46,53)"/><path d=" M 1097.122 1493.398 C 1096.769 1546.596 1053.187 1589.594 999.976 1589.241 C 946.778 1588.875 903.78 1545.306 904.146 1492.095 C 904.499 1438.883 948.068 1395.885 1001.279 1396.252 C 1054.491 1396.605 1097.489 1440.187 1097.122 1493.398 Z  M 969.798 1493.398 L 983.474 1493.493 C 984.086 1493.493 984.439 1493.426 984.547 1493.29 C 984.642 1493.14 984.697 1492.421 984.71 1491.117 C 984.71 1490.587 984.33 1490.18 983.583 1489.867 C 983.04 1489.664 982.7 1489.446 982.578 1489.243 C 982.456 1489.039 982.401 1488.727 982.401 1488.292 L 982.605 1458.508 C 982.605 1457.979 982.673 1457.598 982.822 1457.367 C 982.958 1457.137 983.298 1456.906 983.841 1456.715 C 984.439 1456.485 984.805 1456.24 984.968 1455.982 C 985.118 1455.724 985.199 1455.262 985.199 1454.61 C 985.199 1453.904 985.091 1453.442 984.873 1453.266 C 984.656 1453.089 984.167 1453.008 983.434 1453.008 L 972.582 1452.926 L 967.489 1468.395 L 962.681 1452.858 L 951.355 1452.777 C 950.92 1452.777 950.648 1452.872 950.54 1453.062 C 950.418 1453.252 950.35 1453.741 950.323 1454.529 L 950.295 1455.615 C 950.282 1455.901 950.594 1456.172 951.205 1456.444 C 951.776 1456.715 952.142 1457.069 952.319 1457.49 C 952.482 1457.924 952.563 1458.535 952.563 1459.337 L 952.36 1488.319 C 952.36 1488.794 952.305 1489.134 952.183 1489.324 C 952.061 1489.528 951.749 1489.772 951.287 1490.085 C 950.648 1490.465 950.323 1491.022 950.323 1491.742 C 950.309 1492.747 950.689 1493.263 951.45 1493.276 L 958.105 1493.317 C 959.001 1493.317 959.449 1492.787 959.449 1491.728 C 959.463 1490.791 959.015 1490.125 958.118 1489.759 C 957.385 1489.433 957.018 1488.93 957.018 1488.278 L 957.167 1467.757 L 962.478 1484.313 L 965.846 1484.34 L 971.482 1467.322 L 971.333 1488.441 C 971.333 1489.08 970.939 1489.514 970.165 1489.759 C 969.458 1489.976 969.092 1490.248 969.024 1490.587 C 968.956 1490.94 968.929 1491.456 968.915 1492.163 C 968.915 1492.978 969.214 1493.385 969.798 1493.398 Z  M 988.513 1524.119 C 988.513 1522.693 988.255 1521.444 987.712 1520.384 C 987.169 1519.311 986.245 1518.239 984.928 1517.193 C 987.06 1515.875 988.146 1514.178 988.16 1512.086 C 988.174 1510.497 987.59 1509.139 986.394 1507.985 C 985.213 1506.83 983.569 1506.233 981.478 1506.219 C 979.427 1506.206 977.77 1506.803 976.534 1507.985 C 975.298 1509.18 974.674 1510.755 974.66 1512.752 C 974.633 1515.237 975.638 1517.329 977.634 1519.013 C 975.244 1520.493 974.035 1522.53 974.022 1525.138 C 974.008 1527.121 974.647 1528.791 975.964 1530.163 C 977.268 1531.535 978.925 1532.214 980.935 1532.241 C 983.026 1532.241 984.792 1531.521 986.272 1530.068 C 987.752 1528.601 988.486 1526.618 988.513 1524.119 Z  M 995.304 1492.108 C 995.304 1491.579 995.249 1491.185 995.127 1490.954 C 995.018 1490.723 994.692 1490.506 994.19 1490.275 C 993.239 1489.854 992.764 1489.338 992.764 1488.727 C 992.778 1488.346 992.859 1487.912 993.036 1487.423 C 993.076 1487.341 993.104 1487.246 993.104 1487.205 L 993.47 1484.91 L 1001.103 1484.951 C 1001.537 1487.097 1001.755 1488.468 1001.755 1489.039 C 1001.755 1489.609 1001.388 1490.085 1000.682 1490.438 C 1000.193 1490.709 999.894 1490.94 999.785 1491.144 C 999.69 1491.334 999.622 1491.837 999.622 1492.651 C 999.622 1493.276 999.813 1493.602 1000.234 1493.602 L 1013.842 1493.697 C 1014.304 1493.697 1014.616 1493.602 1014.766 1493.412 C 1014.901 1493.222 1014.983 1492.706 1014.983 1491.837 C 1014.983 1491.293 1014.956 1490.967 1014.874 1490.859 C 1014.779 1490.737 1014.616 1490.601 1014.345 1490.411 C 1013.394 1489.704 1012.796 1488.672 1012.565 1487.341 L 1007.717 1459.73 C 1007.595 1459.038 1007.486 1458.318 1007.364 1457.598 C 1007.092 1455.738 1006.807 1454.529 1006.535 1453.986 C 1006.25 1453.429 1005.748 1453.144 1005.041 1453.144 L 993.334 1453.062 C 992.805 1453.062 992.479 1453.171 992.357 1453.388 C 992.234 1453.605 992.166 1454.176 992.153 1455.086 C 992.153 1455.778 992.343 1456.227 992.764 1456.43 C 993.633 1456.824 994.081 1457.3 994.068 1457.816 C 994.068 1458.142 994.013 1458.535 993.918 1458.997 L 988.038 1488.482 C 987.929 1489.066 987.549 1489.609 986.856 1490.125 C 986.136 1490.682 985.783 1491.429 985.783 1492.353 C 985.77 1493.113 985.987 1493.507 986.435 1493.507 L 994.502 1493.561 C 994.842 1493.561 995.073 1493.493 995.168 1493.358 C 995.249 1493.208 995.304 1492.801 995.304 1492.108 Z  M 1020.185 1530.896 C 1020.185 1530.598 1020.062 1530.312 1019.804 1530 C 1019.573 1529.742 1019.451 1529.47 1019.451 1529.199 L 1019.56 1514.178 C 1019.56 1513.404 1019.41 1512.684 1019.084 1512.032 C 1018.759 1511.394 1018.324 1510.932 1017.808 1510.687 C 1017.292 1510.443 1016.735 1510.321 1016.151 1510.307 C 1014.82 1510.307 1013.394 1511.122 1011.873 1512.752 C 1011.085 1511.095 1009.971 1510.266 1008.545 1510.253 C 1007.119 1510.253 1005.707 1511.013 1004.308 1512.562 L 1004.322 1510.959 C 1004.322 1510.62 1004.131 1510.457 1003.765 1510.457 L 998.78 1510.416 C 998.373 1510.416 998.169 1510.579 998.169 1510.918 L 998.156 1511.747 C 998.156 1512.059 998.264 1512.263 998.495 1512.371 C 998.848 1512.534 999.039 1512.82 999.039 1513.241 L 998.93 1529.253 C 998.93 1529.43 998.767 1529.66 998.468 1529.973 C 998.169 1530.272 998.034 1530.489 998.034 1530.652 L 998.02 1531.698 C 998.02 1531.956 998.169 1532.091 998.455 1532.091 L 1004.417 1532.119 C 1004.797 1532.132 1004.987 1531.942 1004.987 1531.548 L 1005.001 1530.706 C 1004.987 1530.462 1004.892 1530.258 1004.675 1530.095 C 1004.349 1529.837 1004.199 1529.565 1004.199 1529.28 L 1004.294 1514.409 C 1004.403 1514.354 1004.485 1514.3 1004.539 1514.286 C 1005.109 1513.974 1005.503 1513.825 1005.748 1513.825 C 1006.318 1513.838 1006.59 1514.178 1006.59 1514.87 L 1006.495 1529.823 C 1006.481 1530.801 1006.766 1531.562 1007.35 1532.146 L 1011.968 1532.173 C 1012.321 1532.173 1012.511 1531.996 1012.511 1531.603 L 1012.511 1530.652 C 1012.511 1530.489 1012.416 1530.326 1012.226 1530.163 C 1011.914 1529.905 1011.764 1529.633 1011.764 1529.334 L 1011.859 1515.006 C 1011.859 1514.68 1011.981 1514.395 1012.226 1514.164 C 1012.457 1513.933 1012.796 1513.825 1013.245 1513.825 C 1013.951 1513.838 1014.304 1514.205 1014.304 1514.938 L 1014.195 1529.878 C 1014.195 1530.923 1014.508 1531.698 1015.132 1532.2 L 1019.655 1532.227 C 1020.008 1532.227 1020.185 1532.037 1020.185 1531.657 L 1020.185 1530.896 Z  M 1044.644 1491.823 C 1044.644 1491.307 1044.577 1490.94 1044.441 1490.75 C 1044.305 1490.56 1043.979 1490.356 1043.49 1490.125 C 1043.083 1489.949 1042.824 1489.772 1042.716 1489.623 C 1042.607 1489.473 1042.431 1489.134 1042.186 1488.591 L 1034.513 1470.351 L 1041.942 1457.639 C 1042.078 1457.381 1042.444 1457.109 1043.015 1456.811 C 1043.585 1456.512 1043.87 1456.199 1043.87 1455.86 L 1043.884 1454.081 C 1043.897 1453.632 1043.639 1453.402 1043.123 1453.402 L 1036.02 1453.361 C 1035.599 1453.347 1035.328 1453.456 1035.233 1453.66 C 1035.138 1453.891 1035.097 1454.393 1035.083 1455.208 C 1035.083 1455.928 1035.341 1456.376 1035.871 1456.566 C 1036.482 1456.77 1036.794 1457.041 1036.794 1457.395 C 1036.781 1457.802 1036.183 1458.997 1034.947 1460.994 L 1032.353 1465.217 L 1029.827 1459.201 C 1029.501 1458.481 1029.338 1457.911 1029.338 1457.49 C 1029.338 1457.177 1029.664 1456.919 1030.303 1456.729 C 1030.887 1456.552 1031.185 1456.227 1031.185 1455.778 L 1031.199 1454.054 C 1031.213 1453.565 1030.954 1453.32 1030.438 1453.307 L 1017.59 1453.225 C 1016.789 1453.225 1016.395 1453.483 1016.382 1453.999 L 1016.382 1455.534 C 1016.368 1455.778 1016.558 1456.023 1016.925 1456.267 C 1017.699 1456.783 1018.215 1457.367 1018.473 1458.033 L 1026.133 1476.164 L 1019.641 1487.586 C 1019.098 1488.523 1018.691 1489.148 1018.419 1489.46 C 1018.134 1489.786 1017.726 1490.044 1017.169 1490.275 C 1016.49 1490.574 1016.151 1490.859 1016.151 1491.144 L 1016.137 1493.005 C 1016.137 1493.48 1016.45 1493.711 1017.088 1493.724 L 1024.476 1493.765 C 1024.856 1493.765 1025.101 1493.697 1025.196 1493.575 C 1025.291 1493.439 1025.332 1493.005 1025.332 1492.258 C 1025.345 1491.416 1025.291 1490.927 1025.182 1490.818 C 1025.074 1490.709 1024.938 1490.614 1024.775 1490.533 C 1024.014 1490.139 1023.634 1489.786 1023.648 1489.473 C 1023.648 1489.08 1023.906 1488.468 1024.422 1487.613 L 1028.211 1481.121 L 1030.982 1487.654 C 1031.24 1488.265 1031.375 1488.808 1031.362 1489.297 C 1031.362 1489.677 1031.036 1490.03 1030.384 1490.343 C 1029.8 1490.601 1029.515 1490.995 1029.515 1491.497 L 1029.501 1493.1 C 1029.501 1493.561 1029.814 1493.806 1030.479 1493.806 L 1043.436 1493.901 C 1043.925 1493.887 1044.25 1493.738 1044.413 1493.412 C 1044.563 1493.113 1044.644 1492.57 1044.644 1491.823 Z " fill-rule="evenodd" fill="rgb(44,46,53)"/><path d=" M 981.845 1508.297 C 981.003 1508.297 980.323 1508.582 979.821 1509.139 C 979.305 1509.71 979.047 1510.334 979.047 1511.027 C 979.033 1511.76 979.346 1512.494 979.957 1513.227 C 980.554 1513.96 981.655 1514.857 983.243 1515.916 C 984.153 1515.101 984.602 1513.825 984.615 1512.1 C 984.629 1509.587 983.705 1508.324 981.845 1508.297 Z " fill="rgb(44,46,53)"/></g><g><path d=" M 970.165 1489.759 C 969.458 1489.976 969.092 1490.248 969.024 1490.587 C 968.956 1490.94 968.929 1491.456 968.915 1492.163 C 968.915 1492.978 969.214 1493.385 969.798 1493.398 L 983.474 1493.493 C 984.086 1493.493 984.439 1493.426 984.547 1493.29 C 984.642 1493.14 984.697 1492.421 984.71 1491.117 C 984.71 1490.587 984.33 1490.18 983.583 1489.867 C 983.04 1489.664 982.7 1489.446 982.578 1489.243 C 982.456 1489.039 982.401 1488.727 982.401 1488.292 L 982.605 1458.508 C 982.605 1457.979 982.673 1457.598 982.822 1457.367 C 982.958 1457.137 983.298 1456.906 983.841 1456.715 C 984.439 1456.485 984.805 1456.24 984.968 1455.982 C 985.118 1455.724 985.199 1455.262 985.199 1454.61 C 985.199 1453.904 985.091 1453.442 984.873 1453.266 C 984.656 1453.089 984.167 1453.008 983.434 1453.008 L 972.582 1452.926 L 967.489 1468.395 L 962.681 1452.858 L 951.355 1452.777 C 950.92 1452.777 950.648 1452.872 950.54 1453.062 C 950.418 1453.252 950.35 1453.741 950.323 1454.529 L 950.295 1455.615 C 950.282 1455.901 950.594 1456.172 951.205 1456.444 C 951.776 1456.715 952.142 1457.069 952.319 1457.49 C 952.482 1457.924 952.563 1458.535 952.563 1459.337 L 952.36 1488.319 C 952.36 1488.794 952.305 1489.134 952.183 1489.324 C 952.061 1489.528 951.749 1489.772 951.287 1490.085 C 950.648 1490.465 950.323 1491.022 950.323 1491.742 C 950.309 1492.747 950.689 1493.263 951.45 1493.276 L 958.105 1493.317 C 959.001 1493.317 959.449 1492.787 959.449 1491.728 C 959.463 1490.791 959.015 1490.125 958.118 1489.759 C 957.385 1489.433 957.018 1488.93 957.018 1488.278 L 957.167 1467.757 L 962.478 1484.313 L 965.846 1484.34 L 971.482 1467.322 L 971.333 1488.441 C 971.333 1489.08 970.939 1489.514 970.165 1489.759 Z " fill="rgb(255,144,39)"/><path d=" M 977.634 1519.013 C 975.638 1517.329 974.633 1515.237 974.66 1512.752 C 974.674 1510.755 975.298 1509.18 976.534 1507.985 C 977.77 1506.803 979.427 1506.206 981.478 1506.219 C 983.569 1506.233 985.213 1506.83 986.394 1507.985 C 987.59 1509.139 988.174 1510.497 988.16 1512.086 C 988.146 1514.178 987.06 1515.875 984.928 1517.193 C 986.245 1518.239 987.169 1519.311 987.712 1520.384 C 988.255 1521.444 988.513 1522.693 988.513 1524.119 C 988.486 1526.618 987.752 1528.601 986.272 1530.068 C 984.792 1531.521 983.026 1532.241 980.935 1532.241 C 978.925 1532.214 977.268 1531.535 975.964 1530.163 C 974.647 1528.791 974.008 1527.121 974.022 1525.138 C 974.035 1522.53 975.244 1520.493 977.634 1519.013 Z  M 979.047 1511.027 C 979.033 1511.76 979.346 1512.494 979.957 1513.227 C 980.554 1513.96 981.655 1514.857 983.243 1515.916 C 984.153 1515.101 984.602 1513.825 984.615 1512.1 C 984.629 1509.587 983.705 1508.324 981.845 1508.297 C 981.003 1508.297 980.323 1508.582 979.821 1509.139 C 979.305 1509.71 979.047 1510.334 979.047 1511.027 Z  M 977.77 1524.744 C 977.757 1526.523 978.001 1527.827 978.517 1528.655 C 979.047 1529.497 979.902 1529.918 981.098 1529.918 C 982.008 1529.932 982.782 1529.647 983.393 1529.09 C 984.018 1528.533 984.33 1527.745 984.33 1526.74 C 984.344 1525.803 984.126 1525.016 983.678 1524.377 C 983.243 1523.739 982.469 1522.978 981.369 1522.123 L 979.169 1520.357 C 978.667 1520.792 978.3 1521.308 978.083 1521.946 C 977.879 1522.571 977.77 1523.508 977.77 1524.744 Z " fill-rule="evenodd" fill="rgb(255,144,39)"/><path d=" M 993.036 1487.423 C 992.859 1487.912 992.778 1488.346 992.764 1488.727 C 992.764 1489.338 993.239 1489.854 994.19 1490.275 C 994.692 1490.506 995.018 1490.723 995.127 1490.954 C 995.249 1491.185 995.304 1491.579 995.304 1492.108 C 995.304 1492.801 995.249 1493.208 995.168 1493.358 C 995.073 1493.493 994.842 1493.561 994.502 1493.561 L 986.435 1493.507 C 985.987 1493.507 985.77 1493.113 985.783 1492.353 C 985.783 1491.429 986.136 1490.682 986.856 1490.125 C 987.549 1489.609 987.929 1489.066 988.038 1488.482 L 993.918 1458.997 C 994.013 1458.535 994.068 1458.142 994.068 1457.816 C 994.081 1457.3 993.633 1456.824 992.764 1456.43 C 992.343 1456.227 992.153 1455.778 992.153 1455.086 C 992.166 1454.176 992.234 1453.605 992.357 1453.388 C 992.479 1453.171 992.805 1453.062 993.334 1453.062 L 1005.041 1453.144 C 1005.748 1453.144 1006.25 1453.429 1006.535 1453.986 C 1006.807 1454.529 1007.092 1455.738 1007.364 1457.598 C 1007.486 1458.318 1007.595 1459.038 1007.717 1459.73 L 1012.565 1487.341 C 1012.796 1488.672 1013.394 1489.704 1014.345 1490.411 C 1014.616 1490.601 1014.779 1490.737 1014.874 1490.859 C 1014.956 1490.967 1014.983 1491.293 1014.983 1491.837 C 1014.983 1492.706 1014.901 1493.222 1014.766 1493.412 C 1014.616 1493.602 1014.304 1493.697 1013.842 1493.697 L 1000.234 1493.602 C 999.813 1493.602 999.622 1493.276 999.622 1492.651 C 999.622 1491.837 999.69 1491.334 999.785 1491.144 C 999.894 1490.94 1000.193 1490.709 1000.682 1490.438 C 1001.388 1490.085 1001.755 1489.609 1001.755 1489.039 C 1001.755 1488.468 1001.537 1487.097 1001.103 1484.951 L 993.47 1484.91 L 993.104 1487.205 C 993.104 1487.246 993.076 1487.341 993.036 1487.423 Z  M 994 1482.017 L 1000.818 1482.058 L 997.599 1462.433 L 994 1482.017 Z " fill-rule="evenodd" fill="rgb(255,144,39)"/><path d=" M 1043.49 1490.125 C 1043.083 1489.949 1042.824 1489.772 1042.716 1489.623 C 1042.607 1489.473 1042.431 1489.134 1042.186 1488.591 L 1034.513 1470.351 L 1041.942 1457.639 C 1042.078 1457.381 1042.444 1457.109 1043.015 1456.811 C 1043.585 1456.512 1043.87 1456.199 1043.87 1455.86 L 1043.884 1454.081 C 1043.897 1453.632 1043.639 1453.402 1043.123 1453.402 L 1036.02 1453.361 C 1035.599 1453.347 1035.328 1453.456 1035.233 1453.66 C 1035.138 1453.891 1035.097 1454.393 1035.083 1455.208 C 1035.083 1455.928 1035.341 1456.376 1035.871 1456.566 C 1036.482 1456.77 1036.794 1457.041 1036.794 1457.395 C 1036.781 1457.802 1036.183 1458.997 1034.947 1460.994 L 1032.353 1465.217 L 1029.827 1459.201 C 1029.501 1458.481 1029.338 1457.911 1029.338 1457.49 C 1029.338 1457.177 1029.664 1456.919 1030.303 1456.729 C 1030.887 1456.552 1031.185 1456.227 1031.185 1455.778 L 1031.199 1454.054 C 1031.213 1453.565 1030.954 1453.32 1030.438 1453.307 L 1017.59 1453.225 C 1016.789 1453.225 1016.395 1453.483 1016.382 1453.999 L 1016.382 1455.534 C 1016.368 1455.778 1016.558 1456.023 1016.925 1456.267 C 1017.699 1456.783 1018.215 1457.367 1018.473 1458.033 L 1026.133 1476.164 L 1019.641 1487.586 C 1019.098 1488.523 1018.691 1489.148 1018.419 1489.46 C 1018.134 1489.786 1017.726 1490.044 1017.169 1490.275 C 1016.49 1490.574 1016.151 1490.859 1016.151 1491.144 L 1016.137 1493.005 C 1016.137 1493.48 1016.45 1493.711 1017.088 1493.724 L 1024.476 1493.765 C 1024.856 1493.765 1025.101 1493.697 1025.196 1493.575 C 1025.291 1493.439 1025.332 1493.005 1025.332 1492.258 C 1025.345 1491.416 1025.291 1490.927 1025.182 1490.818 C 1025.074 1490.709 1024.938 1490.614 1024.775 1490.533 C 1024.014 1490.139 1023.634 1489.786 1023.648 1489.473 C 1023.648 1489.08 1023.906 1488.468 1024.422 1487.613 L 1028.211 1481.121 L 1030.982 1487.654 C 1031.24 1488.265 1031.375 1488.808 1031.362 1489.297 C 1031.362 1489.677 1031.036 1490.03 1030.384 1490.343 C 1029.8 1490.601 1029.515 1490.995 1029.515 1491.497 L 1029.501 1493.1 C 1029.501 1493.561 1029.814 1493.806 1030.479 1493.806 L 1043.436 1493.901 C 1043.925 1493.887 1044.25 1493.738 1044.413 1493.412 C 1044.563 1493.113 1044.644 1492.57 1044.644 1491.823 C 1044.644 1491.307 1044.577 1490.94 1044.441 1490.75 C 1044.305 1490.56 1043.979 1490.356 1043.49 1490.125 Z " fill="rgb(255,144,39)"/><path d=" M 998.455 1532.091 L 1004.417 1532.119 C 1004.797 1532.132 1004.987 1531.942 1004.987 1531.548 L 1005.001 1530.706 C 1004.987 1530.462 1004.892 1530.258 1004.675 1530.095 C 1004.349 1529.837 1004.199 1529.565 1004.199 1529.28 L 1004.294 1514.409 C 1004.403 1514.354 1004.485 1514.3 1004.539 1514.286 C 1005.109 1513.974 1005.503 1513.825 1005.748 1513.825 C 1006.318 1513.838 1006.59 1514.178 1006.59 1514.87 L 1006.495 1529.823 C 1006.481 1530.801 1006.766 1531.562 1007.35 1532.146 L 1011.968 1532.173 C 1012.321 1532.173 1012.511 1531.996 1012.511 1531.603 L 1012.511 1530.652 C 1012.511 1530.489 1012.416 1530.326 1012.226 1530.163 C 1011.914 1529.905 1011.764 1529.633 1011.764 1529.334 L 1011.859 1515.006 C 1011.859 1514.68 1011.981 1514.395 1012.226 1514.164 C 1012.457 1513.933 1012.796 1513.825 1013.245 1513.825 C 1013.951 1513.838 1014.304 1514.205 1014.304 1514.938 L 1014.195 1529.878 C 1014.195 1530.923 1014.508 1531.698 1015.132 1532.2 L 1019.655 1532.227 C 1020.008 1532.227 1020.185 1532.037 1020.185 1531.657 L 1020.185 1530.896 C 1020.185 1530.598 1020.062 1530.312 1019.804 1530 C 1019.573 1529.742 1019.451 1529.47 1019.451 1529.199 L 1019.56 1514.178 C 1019.56 1513.404 1019.41 1512.684 1019.084 1512.032 C 1018.759 1511.394 1018.324 1510.932 1017.808 1510.687 C 1017.292 1510.443 1016.735 1510.321 1016.151 1510.307 C 1014.82 1510.307 1013.394 1511.122 1011.873 1512.752 C 1011.085 1511.095 1009.971 1510.266 1008.545 1510.253 C 1007.119 1510.253 1005.707 1511.013 1004.308 1512.562 L 1004.322 1510.959 C 1004.322 1510.62 1004.131 1510.457 1003.765 1510.457 L 998.78 1510.416 C 998.373 1510.416 998.169 1510.579 998.169 1510.918 L 998.156 1511.747 C 998.156 1512.059 998.264 1512.263 998.495 1512.371 C 998.848 1512.534 999.039 1512.82 999.039 1513.241 L 998.93 1529.253 C 998.93 1529.43 998.767 1529.66 998.468 1529.973 C 998.169 1530.272 998.034 1530.489 998.034 1530.652 L 998.02 1531.698 C 998.02 1531.956 998.169 1532.091 998.455 1532.091 Z " fill="rgb(255,144,39)"/></g></g><g><path d=" M 1002.352 1598.477 C 944.048 1598.477 896.622 1551.051 896.622 1492.747 C 896.622 1434.442 944.048 1387.003 1002.352 1387.003 C 1060.657 1387.003 1108.096 1434.442 1108.096 1492.747 C 1108.096 1551.051 1060.657 1598.477 1002.352 1598.477 Z  M 1002.352 1398.968 C 950.648 1398.968 908.587 1441.029 908.587 1492.747 C 908.587 1544.45 950.648 1586.512 1002.352 1586.512 C 1054.07 1586.512 1096.131 1544.45 1096.131 1492.747 C 1096.131 1441.029 1054.07 1398.968 1002.352 1398.968 Z " fill-rule="evenodd" fill="rgb(255,144,39)"/></g></g><g><path d=" M 889.791 1609.858 L 901.321 1612.52 L 902.489 1606.816 L 892.534 1598.001 L 889.791 1609.858 Z " fill="rgb(255,144,39)"/><path d=" M 1118.377 1609.26 L 1129.731 1611.868 L 1132.502 1599.848 L 1119.423 1604.194 L 1118.377 1609.26 Z " fill="rgb(255,144,39)"/><path d=" M 1127.911 1484.869 L 1141.316 1480.388 L 1142.62 1474.072 L 1131.021 1471.383 L 1127.911 1484.869 Z " fill="rgb(255,144,39)"/><path d=" M 886.015 1626.237 L 899.42 1621.769 L 900.724 1615.44 L 889.125 1612.764 L 886.015 1626.237 Z " fill="rgb(255,144,39)"/><path d=" M 889.669 1597.159 L 876.59 1601.519 L 875.558 1606.571 L 886.898 1609.192 L 889.669 1597.159 Z " fill="rgb(255,144,39)"/><path d=" M 1144.385 1465.448 L 1134.444 1456.62 L 1131.7 1468.49 L 1143.217 1471.139 L 1144.385 1465.448 Z " fill="rgb(255,144,39)"/><path d=" M 874.96 1609.477 L 873.521 1616.472 L 883.231 1625.069 L 886.219 1612.085 L 874.96 1609.477 Z " fill="rgb(255,144,39)"/><path d=" M 1132.624 1612.547 L 1144.141 1615.209 L 1145.309 1609.505 L 1135.367 1600.677 L 1132.624 1612.547 Z " fill="rgb(255,144,39)"/><path d=" M 1128.835 1628.926 L 1142.253 1624.458 L 1143.543 1618.115 L 1131.958 1615.44 L 1128.835 1628.926 Z " fill="rgb(255,144,39)"/><path d=" M 1128.128 1470.704 L 1116.856 1468.11 L 1115.43 1475.091 L 1125.127 1483.701 L 1128.128 1470.704 Z " fill="rgb(255,144,39)"/><path d=" M 1117.779 1612.166 L 1116.353 1619.147 L 1126.05 1627.744 L 1129.052 1614.774 L 1117.779 1612.166 Z " fill="rgb(255,144,39)"/><path d=" M 1131.578 1455.778 L 1118.486 1460.138 L 1117.453 1465.19 L 1128.794 1467.811 L 1131.578 1455.778 Z " fill="rgb(255,144,39)"/></g></g><g><path d=" M 2385.51 673.822 L 2412.446 726.23 L 2410.576 738.296 L 2371.765 757.785 C 2355.915 721.983 2359.779 694.044 2383.358 673.968 L 2385.51 673.822 Z " fill="rgb(255,144,39)"/><g><g><path d=" M 2447.009 764.15 C 2450.175 771.011 2451.414 777.41 2450.704 781.646 C 2451.729 782.018 2452.687 782.063 2453.487 781.691 C 2457.081 780.035 2456.484 771.113 2452.169 761.773 C 2447.854 752.423 2441.444 746.182 2437.861 747.838 C 2437.061 748.209 2436.476 748.964 2436.093 749.989 C 2439.776 752.186 2443.843 757.289 2447.009 764.15 Z " fill="rgb(12,13,13)"/><path d=" M 2439.855 767.451 C 2443.032 774.312 2444.271 780.711 2443.55 784.947 C 2444.587 785.319 2445.533 785.364 2446.344 784.992 C 2449.927 783.336 2449.341 774.413 2445.026 765.063 C 2440.7 755.724 2434.301 749.482 2430.719 751.138 C 2429.908 751.51 2429.322 752.265 2428.939 753.29 C 2432.623 755.487 2436.69 760.59 2439.855 767.451 Z " fill="rgb(12,13,13)"/><path d=" M 2432.375 770.91 C 2435.541 777.771 2436.78 784.169 2436.059 788.405 C 2437.095 788.777 2438.053 788.822 2438.853 788.45 C 2442.435 786.794 2441.849 777.872 2437.535 768.521 C 2433.22 759.171 2426.81 752.941 2423.227 754.597 C 2422.416 754.969 2421.842 755.724 2421.447 756.749 C 2425.131 758.946 2429.209 764.049 2432.375 770.91 Z " fill="rgb(12,13,13)"/><path d=" M 2424.883 774.368 C 2428.049 781.218 2429.288 787.628 2428.567 791.864 C 2429.603 792.236 2430.561 792.281 2431.361 791.909 C 2434.955 790.253 2434.358 781.331 2430.043 771.98 C 2425.728 762.629 2419.318 756.388 2415.735 758.056 C 2414.936 758.416 2414.35 759.171 2413.956 760.207 C 2417.651 762.404 2421.717 767.507 2424.883 774.368 Z " fill="rgb(12,13,13)"/></g></g><g><path d=" M 2417.617 765.513 C 2417.549 765.547 2417.47 765.57 2417.403 765.592 C 2413.122 767.564 2412.491 773.106 2414.947 778.447 L 2415.33 779.28 C 2417.797 784.609 2422.427 787.718 2426.697 785.747 C 2426.776 785.713 2426.832 785.668 2426.9 785.634 C 2426.427 782.468 2425.3 778.773 2423.543 774.977 C 2421.796 771.191 2419.701 767.936 2417.617 765.513 Z " fill="rgb(12,13,13)"/></g><path d=" M 2469.574 890.856 C 2457.024 892.692 2417.515 905.118 2411.376 918.175 C 2405.236 931.221 2416.344 949.392 2413.967 962.675 C 2411.601 975.946 2410.959 987.166 2414.17 992.765 C 2417.369 998.376 2422.506 998.026 2414.462 1017.539 C 2406.419 1037.039 2409.922 1033.378 2415.229 1049.037 C 2420.523 1064.697 2419.126 1057.994 2416.558 1075.163 C 2413.978 1092.343 2418.417 1095.43 2421.819 1103.947 C 2425.221 1112.452 2423.396 1113.06 2422.225 1123.346 C 2421.053 1133.62 2408.334 1139.839 2427.091 1139.524 C 2439.596 1139.31 2461.485 1130.027 2492.759 1111.686 C 2495.305 1066.826 2475.207 890.022 2469.574 890.856 Z " fill="rgb(255,144,39)"/><path d=" M 2415.33 913.184 C 2416.062 899.699 2417.966 855.594 2412.423 844.092 C 2405.844 830.46 2399.321 810.723 2387.391 794.185 C 2379.426 783.156 2372.689 771.563 2367.158 759.43 L 2445.195 720.259 L 2453.273 707.968 L 2428.274 658.534 C 2450.794 662.928 2467.794 671.298 2479.285 683.657 C 2496.522 702.178 2494.945 706.515 2495.677 717.251 C 2496.42 727.999 2487.408 753.966 2467.4 790.546 C 2462.984 803.682 2460.686 817.922 2460.494 833.265 C 2460.291 848.981 2461.384 877.281 2462.116 893.661 C 2448.992 896.838 2426.765 904.172 2415.33 913.184 Z  M 2420.749 799.266 L 2464.606 779.584 L 2446.412 739.016 L 2402.543 758.698 L 2420.749 799.266 Z  M 2436.836 847.122 L 2447.55 842.458 L 2448.857 830.843 L 2439.461 823.892 L 2428.747 828.568 L 2427.429 840.183 L 2436.836 847.122 Z  M 2448.327 887.442 L 2454.703 875.208 L 2447.291 863.57 L 2433.513 864.167 L 2427.136 876.402 L 2434.549 888.051 L 2448.327 887.442 Z " fill-rule="evenodd" fill="rgb(12,13,13)"/><path d=" M 2463.423 1202.465 C 2446.063 1203.197 2434.459 1191.312 2434.538 1185.679 C 2434.549 1184.203 2433.231 1165.142 2431.282 1137.789 C 2445.533 1135.457 2468.403 1124.371 2482.226 1117.15 L 2484.682 1143.737 L 2488.095 1179.641 C 2483.217 1194.376 2474.982 1201.981 2463.423 1202.465 Z  M 2469.721 1173.602 L 2478.44 1156.862 L 2468.301 1140.943 L 2449.454 1141.766 L 2440.734 1158.495 L 2450.873 1174.425 L 2469.721 1173.602 Z " fill-rule="evenodd" fill="rgb(12,13,13)"/></g><g><path d=" M 621.547 720.006 L 621.547 236.302 L 566.006 236.302 L 566.006 720.006 L 537.651 720.006 L 537.651 772.625 L 593.078 807.504 L 649.885 772.625 L 649.885 720.006 L 621.547 720.006 Z " fill="rgb(255,144,39)"/><path d=" M 558.215 542.979 C 550.311 542.313 424.41 550.218 421.116 558.787 C 418.924 564.501 467.34 571.869 566.363 580.893 C 566.606 572.486 566.574 565.555 566.282 560.102 C 565.86 552.182 579.964 552.198 589.199 546.274 C 591.682 544.667 594.377 541.356 597.087 537.266 C 580.126 540.138 562.841 543.368 558.215 542.979 Z " fill="rgb(12,13,13)"/><path d=" M 621.725 448.939 L 622.813 482.991 C 622.374 492.226 620.183 499.254 616.223 504.09 C 611.89 509.382 604.407 526.229 597.087 537.266 C 609.114 535.221 620.979 533.37 628.088 533.094 C 645.227 532.429 777.052 510.015 775.072 485.636 C 773.091 461.242 625.02 445.628 621.725 448.939 Z " fill="rgb(12,13,13)"/><path d=" M 712.454 593.829 C 695.315 589.885 664.834 585.568 620.979 580.893 C 621.417 605.109 621.417 620.528 620.979 627.118 C 620.54 633.708 614.129 644.29 601.762 658.881 L 593.549 670.308 C 645.13 662.825 677.737 658.654 691.354 657.778 C 711.789 656.447 772.426 637.992 769.797 624.148 C 767.167 610.319 738.163 599.77 712.454 593.829 Z " fill="rgb(12,13,13)"/></g><g><path d=" M 2932.654 887.755 C 2921.33 874.717 2901.677 873.168 2888.664 884.198 L 2888.652 884.172 C 2888.613 884.211 2888.588 884.249 2888.549 884.287 C 2888.485 884.338 2888.409 884.39 2888.344 884.441 L 2888.37 884.466 C 2876.407 895.931 2874.667 915.776 2885.747 928.52 C 2896.815 941.263 2916.711 942.313 2929.736 932.064 L 2929.749 932.089 C 2929.813 932.038 2929.877 931.974 2929.928 931.923 C 2929.967 931.898 2930.018 931.872 2930.056 931.833 L 2930.043 931.821 C 2942.775 920.472 2943.99 900.793 2932.654 887.755 Z " fill="rgb(255,144,39)"/><path d=" M 2839.967 829.947 L 2825.534 813.326 L 2819.367 818.687 L 2838.457 899.59 L 2863.612 933.535 L 2870.393 927.65 L 2885.99 944.347 L 2878.595 950.77 C 2895.778 966.93 2905.874 978.548 2908.881 985.637 C 2912.207 993.454 2910.928 1008.744 2901.651 1018.814 C 2894.55 1026.529 2888.869 1037.341 2886.604 1041.986 L 2972.139 1036.868 L 2964.846 989.462 L 2927.868 940.24 L 2933.191 937.246 L 2928.726 932.115 C 2915.739 942.696 2896.469 941.072 2885.299 928.225 C 2874.142 915.379 2875.217 896.072 2887.526 884.684 L 2878.39 874.179 C 2872.53 878.696 2864.674 878.555 2860.451 873.693 C 2857.278 870.034 2857.035 864.711 2859.351 860.105 C 2856.472 857.853 2853.389 854.923 2850.407 851.494 C 2842.654 842.576 2838.316 833.427 2839.967 829.947 Z " fill="rgb(12,13,13)"/><path d=" M 2972.561 1038.211 L 2972.331 1036.689 L 2886.604 1041.986 C 2911.606 1046.016 2925.143 1053.642 2927.19 1064.851 C 2930.274 1081.676 2954.29 1144.18 2979.074 1171.049 C 3003.858 1197.931 3082.598 1251.21 3089.866 1263.723 C 3097.134 1276.224 3109.161 1295.365 3123.952 1288.571 C 3138.73 1281.777 3159.458 1265.783 3150.386 1256.187 C 3141.327 1246.578 3134.508 1240.398 3115.916 1225.632 C 3097.313 1210.854 3020.248 1134.609 3007.888 1113.74 C 2999.648 1099.832 2987.877 1074.664 2972.561 1038.211 Z " fill="rgb(255,144,39)"/><path d=" M 3029.09 990.793 L 3040.554 907.881 C 3043.497 931.309 3050.38 944.82 3061.205 948.429 C 3077.429 953.828 3135.966 986.34 3159.112 1014.63 C 3182.259 1042.933 3224.009 1128.352 3235.383 1137.296 C 3246.758 1146.24 3264.019 1160.826 3255.229 1174.516 C 3246.438 1188.194 3227.706 1206.491 3219.467 1196.166 C 3211.226 1185.853 3206.057 1178.24 3194.03 1157.755 C 3182.003 1137.283 3117.273 1050.315 3098.336 1035.166 C 3085.72 1025.058 3062.638 1010.28 3029.09 990.793 Z " fill="rgb(255,144,39)"/><path d=" M 3040.554 907.881 C 3034.962 909.813 3023.844 913.895 3017.139 918.488 C 3006.212 925.961 2991.05 924.745 2983.962 920.408 C 2977.398 916.39 2967.302 904.759 2953.676 885.541 L 2946.523 891.76 L 2932.078 874.051 L 2938.693 868.306 L 2908.689 838.571 L 2832.226 807.504 L 2826.276 812.686 L 2840.555 829.128 C 2843.562 826.505 2852.864 832.263 2861.321 842 C 2864.303 845.442 2866.772 848.896 2868.602 852.069 C 2873.49 850.419 2878.723 851.391 2881.909 855.051 C 2886.31 860.13 2885.095 868.422 2879.17 873.565 L 2888.229 883.993 C 2901.216 872.708 2921.049 874.179 2932.423 887.281 C 2943.811 900.383 2942.493 920.216 2929.506 931.501 L 2933.933 936.606 L 2937.49 931.885 L 2980.942 975.477 L 3029.09 990.793 L 3040.554 907.881 Z " fill="rgb(12,13,13)"/></g><g><path d=" M 2526.112 1261.755 C 2466.829 1270.806 2431.563 1274.454 2420.316 1272.701 C 2403.436 1270.079 2362.857 1236.408 2351.007 1229.235 C 2335.385 1219.794 2326.245 1204.101 2310.127 1202.542 C 2299.712 1201.532 2286.517 1217.828 2313.723 1232.901 C 2331.86 1242.944 2338.467 1252.154 2333.525 1260.515 C 2275.765 1249.338 2237.188 1244.29 2217.739 1245.335 C 2211.717 1245.654 2199.46 1246.735 2199.46 1257.787 C 2199.46 1262.552 2201.975 1269.459 2216.004 1271.178 C 2238.587 1273.905 2272.081 1278.723 2316.504 1285.595 L 2206.156 1281.752 C 2196.024 1284.71 2190.64 1289.634 2190.037 1296.506 C 2189.134 1306.815 2198.096 1308.763 2212.833 1310.039 C 2222.628 1310.906 2255.467 1313.758 2311.332 1318.629 L 2224.187 1324.651 C 2209.698 1324.917 2201.728 1329.221 2200.24 1337.564 C 2197.99 1350.069 2211.682 1350.104 2217.35 1350.6 C 2221.14 1350.936 2252.987 1349.413 2312.926 1346.03 L 2234.673 1362.485 C 2223.921 1368.188 2220.485 1375.061 2224.346 1383.084 C 2230.12 1395.129 2286.712 1378.444 2296.028 1376.885 C 2302.759 1375.769 2361.901 1366.931 2379.081 1366.116 C 2392.029 1365.514 2511.482 1376.761 2532.117 1378.55 C 2536.598 1378.94 2534.596 1340.008 2526.112 1261.755 Z " fill="rgb(255,144,39)"/><path d=" M 2387.743 1366.258 C 2384.998 1366.382 2381.101 1366.736 2376.496 1367.214 C 2360.714 1381.597 2338.538 1397.414 2331.666 1403.843 C 2318.328 1416.295 2295.851 1438.489 2289.971 1453.598 C 2286.18 1463.322 2292.415 1476.393 2314.307 1454.306 C 2328.902 1439.569 2343.143 1431.191 2357.03 1429.154 C 2330.603 1481.707 2315.246 1517.468 2310.995 1536.456 C 2309.667 1542.354 2307.382 1554.434 2318.009 1557.445 C 2322.615 1558.738 2329.947 1558.189 2335.385 1545.153 C 2344.153 1524.164 2357.88 1493.22 2376.549 1452.34 L 2342.895 1557.498 C 2343.001 1568.055 2346.278 1574.555 2352.726 1577.017 C 2362.414 1580.684 2366.701 1572.589 2371.944 1558.756 C 2375.433 1549.545 2387.087 1518.726 2406.943 1466.28 L 2389.071 1551.777 C 2385.405 1565.806 2387.389 1574.644 2395.005 1578.346 C 2406.447 1583.89 2410.185 1570.73 2412.204 1565.398 C 2413.55 1561.856 2420.723 1530.788 2433.724 1472.178 L 2428.34 1551.954 C 2430.908 1563.857 2436.576 1569.029 2445.361 1567.506 C 2458.539 1565.203 2457.813 1506.221 2458.858 1496.816 C 2459.602 1490.032 2467.148 1430.713 2471.027 1413.957 C 2472.833 1406.217 2478.537 1389.727 2484.399 1373.662 C 2445.414 1370.19 2399.203 1366.24 2388.575 1366.24 C 2388.257 1366.24 2387.973 1366.24 2387.743 1366.258 Z " fill="rgb(44,46,53)"/></g><g><g><path d=" M 2008.044 1580.346 C 2000.014 1595.812 1966.39 1605.969 1948.276 1609.455 C 1944.254 1610.222 1930.278 1614.158 1909.125 1620.089 C 1864.014 1632.764 1788.49 1653.988 1755.879 1659.023 C 1704.966 1666.894 1673.266 1663.422 1655.644 1659.11 C 1655.297 1659.023 1654.949 1658.908 1654.588 1658.792 C 1654.964 1653.757 1656.107 1636.496 1656.917 1603.162 C 1657.858 1564.85 1690.121 1504.026 1706.442 1483.525 C 1726.075 1458.842 1769.045 1435.65 1821.405 1421.471 C 1876.746 1406.497 1900.228 1406.178 1934.17 1422.918 C 1968.184 1439.687 2001.49 1547.025 2008.854 1567.657 C 2010.402 1571.983 2010.012 1576.54 2008.044 1580.346 Z  M 1738.141 1607.068 L 1692.755 1607.068 C 1683.278 1640.62 1679.676 1657.707 1681.947 1658.314 C 1689.89 1660.427 1740.427 1657.663 1746.634 1655.551 C 1748.486 1654.929 1745.65 1638.753 1738.141 1607.068 Z  M 1911.903 1610.844 L 1909.429 1558.846 L 1894.469 1599.921 L 1911.903 1610.844 Z  M 1981.871 1584.686 L 1949.52 1546.548 L 1911.903 1557.168 L 1915.477 1610.844 L 1981.871 1584.686 Z " fill-rule="evenodd" fill="rgb(44,46,53)"/><path d=" M 1992.939 1618.845 C 1947.263 1634.558 1854.335 1662.611 1828.552 1668.934 C 1802.785 1675.256 1755.604 1689.363 1720.114 1699.577 C 1684.609 1709.792 1652.519 1719.992 1631.598 1719.992 C 1610.691 1719.992 1580.54 1711.731 1566.925 1700.547 C 1553.311 1689.363 1530.451 1668.442 1545.527 1652.889 C 1555.568 1642.515 1575.071 1624.343 1604.022 1598.358 C 1599.016 1564.98 1608.044 1525.454 1631.12 1479.763 C 1653.966 1434.507 1694.881 1398.366 1718.161 1388.325 C 1744.174 1377.126 1788.201 1364.988 1816.399 1366.941 C 1844.612 1368.879 1866.488 1371.802 1896.639 1382.494 C 1926.791 1393.186 1954.512 1421.891 1964.726 1436.475 C 1974.941 1451.058 1996.122 1484.509 2013.744 1529.447 C 2027.185 1563.736 2022.035 1554.346 2033.132 1577.51 C 2041.899 1595.798 2025.985 1607.473 1992.939 1618.845 Z  M 2013.05 1566.456 C 2004.557 1547.662 1984.692 1455.775 1939.32 1421.211 C 1913.451 1401.505 1879.278 1398.973 1820.942 1414.758 C 1766.643 1429.457 1721.778 1453.894 1700.9 1480.139 C 1683.423 1502.117 1650.276 1564.59 1649.264 1605.592 C 1648.641 1631.418 1647.802 1647.709 1647.296 1655.869 C 1633.262 1644.251 1613.715 1608.443 1609.708 1604.334 C 1603.863 1598.33 1629.051 1653.149 1650.797 1662.337 C 1663.428 1667.675 1687.098 1667.458 1704.691 1667.458 C 1722.125 1667.458 1743.147 1666.923 1763.837 1663.725 C 1797.026 1658.589 1870.351 1634.702 1915.68 1621.97 C 1935.096 1616.516 1958.129 1613 1961.746 1612.291 C 1967.577 1611.177 2008.927 1596.941 2014.641 1583.297 C 2017.419 1576.642 2016.132 1573.285 2013.05 1566.456 Z " fill-rule="evenodd" fill="rgb(44,46,53)"/></g><g><path d=" M 1909.429 1559.888 L 1894.469 1600.963 L 1911.903 1611.886 L 1909.429 1559.888 Z " fill="rgb(255,144,39)"/><path d=" M 1692.755 1608.11 C 1683.278 1641.676 1679.676 1658.748 1681.947 1659.356 C 1689.89 1661.483 1740.427 1658.705 1746.634 1656.593 C 1748.486 1655.971 1745.65 1639.81 1738.141 1608.11 L 1692.755 1608.11 Z " fill="rgb(255,144,39)"/><path d=" M 1981.871 1585.728 L 1949.52 1547.604 L 1911.903 1558.209 L 1915.477 1611.886 L 1981.871 1585.728 Z " fill="rgb(255,144,39)"/><path d=" M 1650.797 1663.393 C 1629.051 1654.191 1603.863 1599.371 1609.708 1605.376 C 1613.715 1609.499 1633.262 1645.293 1647.296 1656.911 C 1647.802 1648.751 1648.641 1632.474 1649.264 1606.649 C 1650.276 1565.631 1683.423 1503.173 1700.9 1481.181 C 1721.778 1454.936 1766.643 1430.499 1820.942 1415.814 C 1879.278 1400.015 1913.451 1402.547 1939.32 1422.252 C 1984.692 1456.817 2004.557 1548.718 2013.05 1567.498 C 2016.132 1574.341 2017.419 1577.698 2014.641 1584.339 C 2008.927 1597.982 1967.577 1612.219 1961.746 1613.347 C 1958.129 1614.042 1935.096 1617.558 1915.68 1623.012 C 1870.351 1635.744 1797.026 1659.631 1763.837 1664.767 C 1743.147 1667.965 1722.125 1668.514 1704.691 1668.514 C 1687.098 1668.514 1663.428 1668.731 1650.797 1663.393 Z  M 1755.879 1660.065 C 1788.49 1655.03 1864.014 1633.82 1909.125 1621.131 C 1930.278 1615.199 1944.254 1611.278 1948.276 1610.497 C 1966.39 1607.01 2000.014 1596.868 2008.044 1581.387 C 2010.012 1577.582 2010.402 1573.025 2008.854 1568.699 C 2001.49 1548.067 1968.184 1440.743 1934.17 1423.96 C 1900.228 1407.22 1876.746 1407.538 1821.405 1422.527 C 1769.045 1436.692 1726.075 1459.884 1706.442 1484.567 C 1690.121 1505.082 1657.858 1565.892 1656.917 1604.204 C 1656.107 1637.553 1654.964 1654.813 1654.588 1659.834 C 1654.949 1659.949 1655.297 1660.065 1655.644 1660.152 C 1673.266 1664.463 1704.966 1667.95 1755.879 1660.065 Z " fill-rule="evenodd" fill="rgb(255,144,39)"/></g></g><g><path d=" M 3405.917 703.236 C 3368.374 723.64 3228.657 751.144 3196.79 699.444 C 3186.439 682.647 3197.646 649.825 3207.854 621.85 C 3188.606 615.833 3157.252 605.952 3143.293 601.161 C 3142.594 601.09 3141.896 600.961 3141.225 600.676 L 3134.41 597.867 C 3130.774 596.356 3129.049 592.193 3130.546 588.557 L 3152.504 535.402 C 3154.015 531.766 3158.179 530.041 3161.814 531.538 L 3168.63 534.347 C 3172.266 535.858 3173.991 540.021 3172.494 543.657 L 3156.068 583.409 C 3171.196 588.428 3197.631 596.755 3216.324 602.601 C 3224.679 586.66 3235.259 573.799 3246.494 568.595 C 3300.662 543.472 3387.98 635.281 3407.813 672.823 C 3413.502 683.603 3416.568 697.447 3405.917 703.236 Z " fill="rgb(44,46,53)"/><path d=" M 3190.474 516.281 C 3191.956 512.631 3190.188 508.482 3186.538 506.999 L 3030.538 443.992 C 3026.888 442.509 3022.725 444.277 3021.256 447.927 L 3007.297 482.489 C 3005.814 486.139 3007.582 490.303 3011.232 491.771 L 3167.233 554.779 C 3170.883 556.262 3175.046 554.494 3176.515 550.844 L 3190.474 516.281 Z " fill="rgb(255,144,39)"/></g><g><g><path d=" M 1571.469 1069.378 L 1606.628 1112.17 C 1605.335 1113.138 1603.626 1119.971 1604.223 1124.303 C 1606.167 1138.512 1617.046 1157.091 1620.229 1167.304 C 1622.137 1173.429 1613.013 1185.696 1601.682 1176.652 C 1598.426 1174.062 1564.506 1131.769 1556.892 1121.288 C 1549.965 1111.753 1554.73 1106.625 1550.661 1101.675 C 1549.63 1100.424 1547.18 1100.514 1543.3 1101.95 L 1530.07 1085.233 C 1538.571 1077.722 1541.917 1075.519 1552.551 1070.026 C 1558.185 1067.115 1568.557 1068.381 1571.469 1069.378 Z " fill="rgb(12,13,13)"/><g><g><path d=" M 1811.154 682.537 L 1809.915 678.48 L 1716.022 678.48 L 1714.891 682.537 C 1712.079 683.065 1710.677 684.323 1710.677 686.31 C 1710.677 689.28 1708.968 696.106 1711.907 700.833 C 1714.611 705.172 1717.541 705.194 1718.273 706.445 C 1727.045 721.481 1739.868 735.653 1762.919 735.653 C 1786.566 735.653 1800.284 720.922 1807.781 706.445 C 1810.232 705.105 1811.814 703.788 1812.52 702.492 C 1816.969 694.357 1815.377 689.28 1815.377 686.31 C 1815.377 684.323 1813.966 683.065 1811.154 682.537 Z " fill="rgb(44,46,53)"/><g><path d=" M 1814.265 667.471 L 1711.572 667.471 C 1708.398 667.471 1705.83 669.674 1705.83 672.391 C 1705.83 675.108 1708.398 677.311 1711.572 677.311 L 1814.265 677.311 C 1817.43 677.311 1820.007 675.108 1820.007 672.391 C 1820.007 669.674 1817.43 667.471 1814.265 667.471 Z " fill="rgb(255,144,39)"/><path d=" M 1767.802 666.563 L 1768.869 666.563 L 1768.869 632.859 C 1768.869 630.046 1766.201 627.761 1762.919 627.761 C 1759.627 627.761 1756.968 630.046 1756.968 632.859 L 1756.968 666.563 L 1758.026 666.563 L 1767.802 666.563 Z " fill="rgb(255,144,39)"/><path d=" M 1788.7 666.563 L 1811.887 666.563 C 1810.168 656.038 1803.712 646.771 1794.379 640.318 C 1790.654 648.066 1788.691 656.931 1788.691 666.042 C 1788.691 666.213 1788.691 666.384 1788.7 666.563 Z " fill="rgb(255,144,39)"/><path d=" M 1736.097 666.042 C 1736.097 657.147 1734.225 648.483 1730.671 640.876 C 1721.764 647.3 1715.624 656.336 1713.951 666.563 L 1736.097 666.563 C 1736.097 666.384 1736.097 666.213 1736.097 666.042 Z " fill="rgb(255,144,39)"/><path d=" M 1755.368 666.563 L 1755.368 632.859 C 1755.368 632.323 1755.449 631.802 1755.594 631.311 C 1746.931 632.383 1739 635.345 1732.417 639.67 C 1736.215 647.627 1738.222 656.715 1738.222 666.042 C 1738.222 666.213 1738.222 666.384 1738.222 666.563 L 1755.368 666.563 Z " fill="rgb(255,144,39)"/><path d=" M 1792.625 639.156 C 1786.195 635.107 1778.563 632.338 1770.243 631.311 C 1770.388 631.802 1770.461 632.323 1770.461 632.859 L 1770.461 666.563 L 1786.566 666.563 C 1786.566 666.384 1786.566 666.213 1786.566 666.042 C 1786.566 656.514 1788.664 647.24 1792.625 639.156 Z " fill="rgb(255,144,39)"/></g></g><path d=" M 1821.698 1126.945 L 1873.894 1100.544 C 1875.016 1101.653 1883.109 1103.417 1888.3 1103.164 C 1905.319 1102.337 1927.845 1094.462 1940.135 1092.415 C 1947.505 1091.187 1961.847 1099.301 1950.688 1108.061 C 1947.496 1110.577 1895.932 1135.997 1883.173 1141.646 C 1871.57 1146.789 1865.602 1142.629 1859.561 1145.68 C 1858.042 1146.455 1858.069 1148.464 1859.661 1151.71 L 1839.278 1161.602 C 1830.587 1154.263 1828.074 1151.404 1821.852 1142.428 C 1818.56 1137.671 1820.405 1129.268 1821.698 1126.945 Z " fill="rgb(12,13,13)"/><path d=" M 1677.164 815.818 C 1699.835 810.318 1704.808 809.945 1718.825 797.478 C 1721.049 795.498 1725.462 786.692 1726.24 783.142 C 1729.342 769.059 1720.787 744.324 1719.901 739.203 C 1712.296 738.332 1694.165 740.543 1694.174 740.543 C 1687.066 739.814 1677.616 742.538 1672.95 746.386 C 1644.166 765.352 1603.653 794.969 1595.406 800.946 C 1585.838 807.876 1579.337 808.04 1585.947 848.517 C 1588.253 859.593 1590.26 886.278 1597.178 891.927 L 1599.322 891.257 C 1600.163 892.485 1601.221 893.937 1601.89 894.994 C 1602.622 896.922 1602.631 898.663 1604.051 902.102 C 1605.181 904.849 1614.866 918.403 1616.051 920.86 C 1618.059 924.998 1632.139 938.017 1636.787 935.017 C 1640.784 932.434 1631.714 929.516 1630.791 926.956 C 1633.567 928.928 1639.011 934.005 1643.415 931.995 C 1647.421 930.171 1643.008 927.529 1641.344 925.378 C 1642.963 927.224 1648.941 929.278 1650.849 927.804 C 1654.466 925.013 1650.116 921.879 1647.801 919.579 C 1650.351 921.716 1656.971 922.564 1658.788 920.837 C 1660.941 918.79 1658.906 916.066 1651.174 912.017 C 1645.269 908.921 1642.818 901.849 1644.166 900.495 C 1646.409 898.224 1652.503 901.886 1658.083 904.253 C 1662.062 905.869 1667.623 906.405 1669.758 903.584 C 1671.973 900.673 1662.478 897.956 1657.432 895.895 C 1650.559 893.252 1646.96 887.99 1638.975 888.228 C 1636.172 888.258 1633.685 887.312 1631.406 885.868 C 1630.194 884.938 1628.766 883.725 1627.373 882.481 L 1629.561 881.797 C 1627.689 870.051 1626.08 843.366 1625.483 823.507 L 1668.41 803.76 L 1677.164 815.818 Z " fill="rgb(44,46,53)"/><path d=" M 1983.812 865.838 C 1982.248 861.863 1975.782 867.855 1972.545 867.691 C 1975.755 866.225 1983.423 863.769 1982.655 859.675 C 1981.958 855.953 1977.419 858.447 1974.399 858.99 C 1977.057 858.372 1981.461 854.464 1980.448 852.492 C 1978.504 848.733 1973.44 851.003 1970.013 851.993 C 1973.331 850.765 1976.587 845.949 1975.249 843.947 C 1973.648 841.58 1969.841 842.205 1962.552 846.775 C 1956.991 850.266 1948.074 849.716 1946.989 848.212 C 1945.19 845.696 1951.465 842.257 1956.086 838.759 C 1959.306 836.243 1961.838 832.134 1959.36 829.507 C 1956.81 826.797 1950.425 833.191 1946.338 836.377 C 1940.948 840.769 1933.705 841.736 1931.218 847.981 C 1930.287 850.162 1928.351 851.755 1925.919 853.013 C 1924.436 853.631 1922.564 854.308 1920.656 854.956 L 1920.629 853.028 C 1906.594 850.423 1875.622 842.451 1852.77 836.042 L 1845.083 796.063 C 1842 767.712 1839.73 752.49 1838.283 750.398 C 1827.106 734.224 1812.393 734.871 1802.455 736.36 C 1800.312 736.271 1791.223 735.884 1785.508 735.683 C 1780.914 737.171 1775.76 738.035 1769.954 738.035 C 1764.031 738.035 1758.741 737.164 1754.011 735.653 C 1748.242 735.884 1741.451 736.233 1732.2 736.695 C 1734.37 742.739 1741.487 763.707 1741.885 779.889 C 1741.966 782.896 1741.695 799.391 1741.342 801.854 L 1793.701 801.765 C 1803.648 824.058 1813.921 845.659 1816.652 851.487 C 1821.246 861.268 1819.193 866.352 1867.628 875.224 C 1881.057 877.271 1912.174 884.945 1920.99 881.544 L 1920.972 879.66 C 1922.672 879.437 1924.689 879.117 1926.118 878.968 C 1928.568 879.065 1930.558 879.66 1934.971 879.757 C 1938.498 879.832 1957.289 877.033 1960.508 876.966 C 1965.907 876.847 1985.63 870.468 1983.812 865.838 Z " fill="rgb(44,46,53)"/><path d=" M 1796.522 945.788 C 1804.661 912.501 1810.539 889.806 1814.156 877.688 C 1817.774 865.563 1820.812 843.485 1823.272 811.434 L 1816.037 735.653 L 1802.916 736.382 C 1800.773 742.456 1798.358 761.4 1797.951 777.567 C 1797.879 780.574 1796.242 799.294 1796.595 801.758 L 1741.342 801.854 C 1741.704 799.391 1741.966 782.896 1741.885 779.889 C 1741.487 763.871 1734.524 743.186 1732.272 736.903 L 1719.901 739.203 C 1730.988 764.771 1731.738 782.405 1722.18 792.111 C 1709.845 804.623 1694.843 812.528 1677.164 815.818 C 1683.494 829.827 1686.65 841.669 1686.65 851.346 C 1681.703 865.481 1678.882 881.112 1678.195 898.232 C 1677.155 923.911 1662.957 948.475 1678.195 958.523 C 1684.407 962.617 1699.283 973.566 1715.398 986.31 C 1738.837 1004.851 1764.872 1027.204 1770.596 1037.788 C 1777.026 1049.698 1793.357 1080.216 1819.582 1129.342 L 1881.888 1100.201 L 1796.522 945.788 Z " fill="rgb(255,144,39)"/><path d=" M 1744.634 1010.568 C 1735.021 1027.286 1727.778 1037.952 1722.894 1042.552 C 1707.069 1057.469 1668.627 1081.287 1607.569 1114.009 L 1568.259 1069.348 L 1674.062 1013.895 L 1686.008 964.806 L 1744.634 1010.568 Z " fill="rgb(255,144,39)"/></g></g><g><path d=" M 1726.53 1323.027 C 1682.897 1323.027 1639.97 1316.201 1598.951 1302.736 C 1559.442 1289.77 1522.32 1270.871 1488.617 1246.561 L 1527.131 1205.868 C 1585.495 1247.983 1654.448 1270.238 1726.53 1270.238 C 1846.422 1270.238 1955.508 1208.89 2018.348 1106.141 L 2071.674 1131.002 C 2036.678 1188.234 1987.158 1236.2 1928.46 1269.717 C 1867.392 1304.597 1797.571 1323.027 1726.53 1323.027 Z " fill="rgb(44,46,53)"/></g><g><path d=" M 1635.114 1216.571 L 1533.199 1245.109 L 1485.976 1328.974 L 1407.962 1118.43 L 1635.114 1216.571 Z " fill="rgb(255,144,39)"/></g><g><g><path d=" M 2064.865 876.393 C 2043.107 729.214 1925.521 610.618 1778.916 587.998 L 1789.442 536.021 C 1832.441 542.653 1873.813 556.043 1912.409 575.828 C 1949.865 595.024 1983.921 619.826 2013.618 649.547 C 2043.162 679.105 2067.695 712.831 2086.532 749.78 C 2105.766 787.511 2118.653 827.839 2124.829 869.634 L 2064.865 876.393 Z " fill="rgb(44,46,53)"/></g><path d=" M 1992.973 806.812 L 2091.035 844.245 L 2189.975 808.606 L 2089.037 1011.587 L 1992.973 806.812 Z " fill="rgb(255,144,39)"/><g><path d=" M 1333.719 1013.917 C 1327.29 985.595 1324.025 956.394 1324.025 927.12 C 1324.025 894.093 1328.167 861.268 1336.333 829.544 C 1344.281 798.684 1356.056 768.783 1371.329 740.67 C 1401.47 685.194 1445.256 636.946 1497.94 601.15 L 1535.071 642.811 C 1440.779 706.877 1384.478 813.161 1384.478 927.12 C 1384.478 952.956 1387.353 978.695 1393.023 1003.638 L 1333.719 1013.917 Z " fill="rgb(44,46,53)"/></g><g><path d=" M 1497.136 732.623 L 1489.684 639.402 L 1407.673 579.356 L 1660.452 563.412 L 1497.136 732.623 Z " fill="rgb(255,144,39)"/></g></g></g></g></svg>