<?xml version="1.0" encoding="UTF-8" standalone="no"?><!-- Generator: Gravit.io --><svg xmlns="http://www.w3.org/2000/svg" xmlns:xlink="http://www.w3.org/1999/xlink" style="isolation:isolate" viewBox="0 0 1000 350" width="1000pt" height="350pt"><defs><clipPath id="_clipPath_3Il1wgOlYbu3S4kVddq8Nm2G7dVpa0jl"><rect width="1000" height="350"/></clipPath></defs><g clip-path="url(#_clipPath_3Il1wgOlYbu3S4kVddq8Nm2G7dVpa0jl)"><path d=" M 863.619 107.891 C 863.656 109.672 863.581 111.303 863.406 112.771 L 892.754 112.771 C 892.579 111.303 892.51 109.672 892.542 107.891 C 892.742 98.285 896.216 85.842 897.279 82.255 C 892.76 81.98 889.442 81.774 886.623 81.636 C 884.311 82.53 881.73 83.049 878.836 83.049 C 875.999 83.049 873.48 82.536 871.237 81.655 C 868.068 81.786 864.2 81.992 859.094 82.261 C 859.05 82.261 859.006 82.267 858.969 82.267 C 860.013 85.873 863.425 98.298 863.619 107.891 Z " fill="rgb(44,46,53)"/><path d=" M 942.607 126.595 C 937.007 116.14 928.345 103.066 916.609 87.367 C 912.34 83.167 904.909 82.717 899.816 82.411 C 899.579 82.392 899.347 82.38 899.116 82.367 C 898.291 85.105 894.51 98.191 894.31 107.928 C 894.26 110.315 894.41 112.409 894.754 114.146 C 895.054 115.64 902.91 125.646 909.847 134.807 L 911.196 118.965 L 925.377 138.232 C 921.083 143.144 918.115 141.301 914.69 146.357 C 914.371 145.294 913.715 144.475 912.04 144.569 C 909.49 144.713 911.971 151.325 909.472 150.8 C 909.147 150.737 908.828 150.612 908.515 150.45 L 909.628 137.363 C 906.672 133.526 894.673 118.54 893.192 114.978 L 862.975 114.978 C 861.519 118.465 850.551 133.757 847.37 138.038 L 848.264 149.094 C 851.02 152.969 853.976 157.212 856.719 161.337 C 864.556 173.123 866.875 178.279 867.531 180.679 C 867.693 181.217 867.787 181.666 867.837 182.041 C 867.881 182.066 867.918 182.091 867.962 182.116 C 870.131 183.516 872.374 184.966 874.293 184.966 C 874.787 184.966 875.23 184.866 875.649 184.673 C 876.555 184.216 877.486 183.991 878.486 183.991 C 879.886 183.991 881.211 184.441 882.492 184.866 C 883.586 185.235 884.723 185.616 885.892 185.71 L 885.923 185.716 C 886.38 185.766 886.911 185.804 887.479 185.841 C 889.873 186.004 892.342 186.179 893.416 187.466 C 893.81 187.941 893.979 188.528 893.91 189.16 C 893.623 191.641 891.129 192.753 888.786 192.753 C 888.511 192.753 888.236 192.741 887.967 192.709 C 887.736 192.678 887.529 192.653 887.329 192.628 C 886.511 192.522 885.805 192.428 885.186 192.428 C 884.986 192.428 884.792 192.441 884.598 192.459 C 884.473 192.728 884.298 192.978 884.067 193.203 C 883.611 193.653 883.067 193.953 882.48 194.134 C 883.398 196.778 885.148 198.74 887.598 199.834 C 887.848 199.94 888.148 200.053 888.467 200.178 C 890.604 200.99 893.535 202.109 894.21 204.046 C 894.473 204.79 894.379 205.571 893.935 206.315 C 893.529 207.008 892.66 207.833 890.848 207.833 C 890.842 207.833 890.829 207.833 890.823 207.833 C 890.923 208.052 890.998 208.283 891.042 208.527 C 891.179 209.352 890.898 210.164 890.21 210.946 C 889.723 211.502 888.904 211.783 887.792 211.783 C 887.623 211.783 887.448 211.777 887.273 211.764 C 887.411 212.364 887.292 213.077 886.723 213.92 C 886.155 214.764 885.33 215.214 884.336 215.214 C 883.948 215.214 883.561 215.145 883.173 215.039 C 883.498 215.752 883.536 216.451 882.949 217.064 C 882.461 217.583 881.811 217.851 881.061 217.851 C 880.767 217.851 880.461 217.808 880.142 217.72 L 888.223 317.882 C 886.598 319.913 885.767 321.55 885.723 322.794 C 885.586 326.875 885.698 328.262 886.636 332.212 L 894.754 332.349 C 894.998 330.987 895.429 330.306 896.048 330.306 C 898.479 330.306 899.316 332.724 903.828 332.968 C 908.797 333.237 929.426 333.462 930.914 333.156 C 936.088 332.112 933.664 326.937 931.239 326.1 C 927.202 324.694 918.89 323.512 913.734 320.894 C 912.384 320.213 910.74 318.669 910.24 317.882 L 910.428 317.882 C 907.284 229.307 905.709 184.51 905.709 183.498 L 907.178 166.224 C 908.478 166.78 909.884 167.074 911.44 167.093 C 914.471 167.13 917.671 167.493 920.527 166.499 C 923.289 165.486 925.645 162.874 925.245 159.937 C 931.195 155.312 937.538 148.963 944.288 140.882 C 945.706 139.288 943.969 129.145 942.607 126.595 Z " fill="rgb(44,46,53)"/><path d=" M 862.75 180.135 C 862.825 180.192 862.894 180.248 862.969 180.304 C 863.087 180.354 863.206 180.41 863.325 180.485 L 862.75 180.135 Z " fill="rgb(44,46,53)"/><path d=" M 874.962 209.652 C 874.899 209.777 874.805 209.896 874.668 210.008 C 874.543 210.139 874.405 210.227 874.274 210.283 C 873.143 210.983 864.006 203.621 862.75 201.128 C 861.475 198.597 855.201 191.597 854.413 190.485 C 853.251 189.922 852.819 189.641 849.426 186.691 L 847.245 318.232 C 846.57 319.063 845.176 320.3 844.008 320.894 C 838.845 323.512 830.54 324.694 826.496 326.1 C 824.072 326.937 821.647 332.112 826.828 333.156 C 828.309 333.462 848.945 333.237 853.907 332.968 C 858.425 332.724 859.263 330.306 861.694 330.306 C 862.306 330.306 862.737 330.987 862.981 332.349 L 871.106 332.212 C 872.043 328.262 872.156 326.875 872.012 322.794 C 871.956 321.125 870.518 319.238 869.462 318.213 L 875.399 208.827 C 875.312 209.115 875.162 209.383 874.962 209.652 Z " fill="rgb(44,46,53)"/><path d=" M 903.941 40.264 L 853.776 40.264 C 852.226 40.264 850.97 41.577 850.97 43.189 C 850.97 44.795 852.226 46.108 853.776 46.108 L 903.941 46.108 C 905.491 46.108 906.747 44.795 906.747 43.189 C 906.747 41.577 905.491 40.264 903.941 40.264 Z " fill="rgb(255,144,39)"/><path d=" M 881.249 39.727 L 881.767 39.727 L 881.767 19.728 C 881.767 18.053 880.467 16.697 878.861 16.697 C 877.255 16.697 875.949 18.053 875.949 19.728 L 875.949 39.727 L 876.468 39.727 L 881.249 39.727 Z " fill="rgb(255,144,39)"/><path d=" M 891.454 39.727 L 902.778 39.727 C 901.941 33.477 898.785 27.984 894.229 24.153 C 892.41 28.746 891.448 34.008 891.448 39.414 C 891.448 39.521 891.454 39.621 891.454 39.727 Z " fill="rgb(255,144,39)"/><path d=" M 865.756 39.414 C 865.756 34.14 864.844 28.996 863.106 24.478 C 858.756 28.29 855.757 33.658 854.938 39.727 L 865.756 39.727 C 865.756 39.621 865.756 39.521 865.756 39.414 Z " fill="rgb(255,144,39)"/><path d=" M 875.174 39.727 L 875.174 19.728 C 875.174 19.409 875.212 19.097 875.28 18.803 C 871.049 19.441 867.175 21.197 863.956 23.765 C 865.812 28.49 866.793 33.883 866.793 39.414 C 866.793 39.521 866.793 39.621 866.793 39.727 L 875.174 39.727 Z " fill="rgb(255,144,39)"/><path d=" M 893.366 23.459 C 890.229 21.059 886.498 19.416 882.436 18.803 C 882.505 19.097 882.542 19.409 882.542 19.728 L 882.542 39.727 L 890.41 39.727 C 890.41 39.621 890.41 39.521 890.41 39.414 C 890.41 33.765 891.435 28.259 893.366 23.459 Z " fill="rgb(255,144,39)"/><path d=" M 902.422 49.207 L 901.822 46.795 L 855.95 46.795 L 855.4 49.207 C 854.026 49.52 853.338 50.27 853.338 51.445 C 853.338 53.213 852.507 57.263 853.944 60.063 C 855.263 62.638 856.688 62.656 857.05 63.394 C 861.331 72.318 867.6 80.73 878.861 80.73 C 890.41 80.73 897.116 71.987 900.772 63.394 C 901.972 62.6 902.747 61.819 903.091 61.05 C 905.259 56.219 904.484 53.213 904.484 51.445 C 904.484 50.27 903.797 49.52 902.422 49.207 Z " fill="rgb(44,46,53)"/><path d=" M 789.505 249.437 C 766.982 250.949 749.952 270.435 751.464 292.958 C 751.483 293.233 751.52 293.502 751.539 293.783 L 774.169 278.347 C 781.843 273.116 792.274 275.047 797.473 282.665 L 802.023 289.327 C 807.21 296.946 805.204 307.364 797.53 312.601 L 775.606 327.55 C 781.5 330.181 788.099 331.456 794.986 330.999 C 817.509 329.487 834.539 309.995 833.021 287.478 C 832.877 285.215 833.852 280.647 834.846 278.691 C 845.464 257.88 924.727 162.605 948.944 147.938 C 954.568 144.525 960.162 149.706 967.217 149.519 C 994.284 148.769 1001.334 129.289 999.803 108.797 C 999.784 108.547 999.753 108.303 999.728 108.053 L 979.242 122.252 C 972.292 127.07 962.786 125.389 957.999 118.49 L 953.818 112.459 C 949.031 105.559 950.787 96.06 957.737 91.248 L 977.585 77.48 C 972.205 75.13 966.186 74.012 959.918 74.48 C 939.432 76.018 922.271 92.935 923.802 113.428 C 923.958 115.484 925.395 118.921 924.483 120.696 C 913.79 141.326 815.585 249.612 810.254 251.418 C 802.554 254.018 797.242 248.912 789.505 249.437 Z " fill="rgb(255,144,39)"/><path d=" M 904.559 166.443 C 905.703 165.499 907.853 167.286 908.647 167.78 C 907.815 167.099 907.322 165.63 906.772 164.668 C 906.234 163.568 904.684 160.849 906.409 159.587 C 908.14 158.262 909.934 159.999 910.784 160.999 C 909.622 159.587 906.097 156.106 909.609 154.087 C 912.803 152.231 914.771 157.962 915.596 157.331 C 913.328 154.118 913.328 151.75 915.596 150.238 C 917.583 148.913 919.652 152.487 920.958 154.825 C 923.558 159.481 928.27 165.493 928.745 169.017 C 929.183 172.33 924.914 175.411 921.452 177.248 C 918.746 178.685 915.984 177.304 912.628 176.073 C 909.234 174.829 906.609 173.917 904.828 170.805 C 904.334 169.936 903.278 167.53 904.559 166.443 Z " fill="rgb(44,46,53)"/><path d=" M 887.161 200.709 C 884.086 199.34 881.949 196.684 881.092 193.153 C 883.53 190.885 885.061 191.285 888.036 191.653 C 890.142 191.878 892.667 191.128 892.917 188.972 C 893.179 186.747 888.429 186.916 885.761 186.622 C 882.161 186.335 879.349 183.785 875.962 185.485 C 874.755 186.054 873.462 185.947 872.131 185.504 C 870.543 184.779 868.206 183.454 866.768 182.535 C 867.281 176.686 846.52 148.175 838.933 137.97 L 846.251 124.227 L 847.101 134.745 C 853.932 125.689 861.119 115.615 861.406 114.146 C 861.75 112.409 861.9 110.315 861.85 107.928 C 861.656 98.441 858.069 85.617 857.125 82.399 C 853.738 82.674 846.864 83.211 846.864 83.211 C 843.708 83.524 839.914 86.342 838.308 89.354 L 818.691 134.176 C 818.459 134.576 818.253 134.995 818.072 135.426 C 817.528 136.707 817.272 138.057 817.291 139.388 C 817.278 141.794 818.034 144.288 819.616 146.457 C 837.133 171.386 848.857 185.754 854.807 189.541 C 855.282 190.197 857.338 193.003 859.231 194.766 C 859.931 195.422 860.925 196.265 861.563 196.872 C 862.337 197.922 862.756 198.996 864.187 200.84 C 865.331 202.315 871.274 209.071 872.374 210.358 C 874.224 212.521 880.036 218.595 882.149 216.383 C 882.899 215.602 880.974 213.864 879.961 212.464 C 881.63 213.139 884.43 215.445 885.848 213.352 C 887.142 211.446 885.136 210.739 883.905 209.739 C 885.042 210.564 888.529 211.296 889.436 210.271 C 891.467 207.983 887.998 206.571 886.448 205.602 C 888.061 206.427 891.91 207.758 893.079 205.784 C 894.629 203.165 889.336 201.596 887.161 200.709 Z " fill="rgb(44,46,53)"/></g></svg>